<?xml version="1.0" encoding="UTF-8" standalone="no"?>
<!-- Created with matplotlib (https://matplotlib.org/) -->

<svg
   xmlns:dc="http://purl.org/dc/elements/1.1/"
   xmlns:cc="http://creativecommons.org/ns#"
   xmlns:rdf="http://www.w3.org/1999/02/22-rdf-syntax-ns#"
   xmlns:svg="http://www.w3.org/2000/svg"
   xmlns="http://www.w3.org/2000/svg"
   xmlns:sodipodi="http://sodipodi.sourceforge.net/DTD/sodipodi-0.dtd"
   xmlns:inkscape="http://www.inkscape.org/namespaces/inkscape"
   height="506.434833pt"
   version="1.1"
   viewBox="0 0 568.7725 506.434833"
   width="568.7725pt"
   id="svg937"
   sodipodi:docname="random_rods.svg"
   inkscape:version="0.92.3 (2405546, 2018-03-11)">
  <metadata
     id="metadata941">
    <rdf:RDF>
      <cc:Work
         rdf:about="">
        <dc:format>image/svg+xml</dc:format>
        <dc:type
           rdf:resource="http://purl.org/dc/dcmitype/StillImage" />
      </cc:Work>
    </rdf:RDF>
  </metadata>
  <sodipodi:namedview
     pagecolor="#ffffff"
     bordercolor="#666666"
     borderopacity="1"
     objecttolerance="10"
     gridtolerance="10"
     guidetolerance="10"
     inkscape:pageopacity="0"
     inkscape:pageshadow="2"
     inkscape:window-width="2880"
     inkscape:window-height="1491"
     id="namedview939"
     showgrid="false"
     inkscape:zoom="0.98854099"
     inkscape:cx="215.20946"
     inkscape:cy="414.77346"
     inkscape:window-x="0"
     inkscape:window-y="55"
     inkscape:window-maximized="1"
     inkscape:current-layer="axes_1" />
  <defs
     id="defs4">
    <style
       type="text/css"
       id="style2">
*{stroke-linecap:butt;stroke-linejoin:round;}
  </style>
  </defs>
  <g
     id="figure_1">
    <g
       id="axes_1">
      <g
         id="patch_2"
         transform="rotate(6.2297253,291.06738,244.87866)"
         style="stroke-linecap:butt;stroke-linejoin:round">
        <path
           style="stroke:#000000;stroke-width:1.33333337;stroke-linecap:butt;stroke-linejoin:miter"
           clip-path="url(#p34f43847c3)"
           d="m 370.29883,38.410156 -27.34375,8.884766 c -0.41156,-1.266733 -1.11101,-2.435222 -2.07031,-3.394531 -1.59708,-1.597071 -3.76484,-2.494141 -6.02344,-2.494141 -2.2586,0 -4.42441,0.89707 -6.02149,2.494141 -0.95934,0.95934 -1.66071,2.127751 -2.07226,3.394531 L 314.9707,43.460938 H 248.29688 L 236.5,47.294922 c -0.41155,-1.26678 -1.11293,-2.435191 -2.07227,-3.394531 -1.59707,-1.597071 -3.76288,-2.494141 -6.02148,-2.494141 -2.2586,0 -4.42637,0.89707 -6.02344,2.494141 -1.59707,1.597072 -2.49414,3.764837 -2.49414,6.023437 0,2.109334 0.79097,4.13155 2.19531,5.691406 l -5.54492,4.992188 -38.04101,65.890628 -1.55078,7.29297 c -0.57763,-0.12277 -1.17,-0.19141 -1.76954,-0.19141 -2.2586,0 -4.42441,0.89902 -6.02148,2.49609 -1.59707,1.59708 -2.49414,3.76289 -2.49414,6.02149 0,2.10956 0.79068,4.13148 2.19531,5.6914 l -21.36914,19.24024 -17.79101,30.8164 -5.97852,28.11915 c -0.57762,-0.12277 -1.16999,-0.18946 -1.76953,-0.18946 -2.2586,0 -4.42441,0.89707 -6.02149,2.49414 -1.59707,1.59707 -2.49414,3.76289 -2.49414,6.02149 0,2.10931 0.791,4.13155 2.19532,5.6914 l -5.54688,4.99414 -38.041014,65.88868 -1.550782,7.29296 c -0.577548,-0.12273 -1.170072,-0.18945 -1.769531,-0.18945 -2.2586,0 -4.424414,0.89707 -6.021484,2.49414 -1.597071,1.59707 -2.494141,3.76289 -2.494141,6.02149 0,2.2586 0.89707,4.42636 2.494141,6.02343 1.59707,1.59707 3.762884,2.49414 6.021484,2.49414 0.599459,0 1.191983,-0.0687 1.769531,-0.1914 l 1.550782,7.29297 38.041014,65.89062 5.54688,4.99219 c -1.40464,1.55992 -2.19532,3.58184 -2.19532,5.69141 0,2.2586 0.89707,4.42636 2.49414,6.02343 1.59708,1.59707 3.76289,2.49414 6.02149,2.49414 0.59954,0 1.19191,-0.0686 1.76953,-0.1914 l 5.97852,28.12109 17.79101,30.81641 21.36719,19.24023 c -1.40348,1.55965 -2.19336,3.58277 -2.19336,5.69141 0,2.2586 0.89707,4.42441 2.49414,6.02148 1.59707,1.59707 3.76288,2.49414 6.02148,2.49414 0.59954,0 1.19191,-0.0667 1.76954,-0.18945 l 5.97656,28.11914 17.79297,30.81641 21.36718,19.24023 c -1.40402,1.55978 -2.19531,3.58233 -2.19531,5.69141 0,2.2586 0.89707,4.42441 2.49414,6.02148 1.59707,1.59707 3.76484,2.49414 6.02344,2.49414 2.2586,0 4.42441,-0.89707 6.02148,-2.49414 0.95926,-0.95925 1.6607,-2.12593 2.07227,-3.39258 l 27.3418,8.88477 h 35.58398 l 27.3418,-8.88477 c 0.41157,1.26665 1.11301,2.43333 2.07226,3.39258 1.59708,1.59707 3.76289,2.49414 6.02149,2.49414 2.2586,0 4.42636,-0.89707 6.02344,-2.49414 0.95922,-0.95922 1.65873,-2.12598 2.07031,-3.39258 l 7.09375,2.30469 h 76.08203 l 7.09375,-2.30469 c 0.41157,1.2666 1.11304,2.43336 2.07227,3.39258 1.59707,1.59707 3.76288,2.49414 6.02148,2.49414 2.2586,0 4.42441,-0.89707 6.02148,-2.49414 0.95926,-0.95925 1.6607,-2.12593 2.07227,-3.39258 l 27.3418,8.88477 h 35.58398 l 27.3418,-8.88477 c 0.41157,1.26665 1.11301,2.43333 2.07226,3.39258 1.59707,1.59707 3.76289,2.49414 6.02149,2.49414 2.2586,0 4.42636,-0.89707 6.02344,-2.49414 1.59707,-1.59707 2.49414,-3.76288 2.49414,-6.02148 0,-2.10908 -0.7913,-4.13163 -2.19532,-5.69141 l 21.36719,-19.24023 17.79297,-30.81641 5.97656,-28.11914 c 0.57814,0.12299 1.16943,0.18945 1.76953,0.18945 2.2586,0 4.42442,-0.89707 6.02149,-2.49414 1.59707,-1.59707 2.49609,-3.76288 2.49609,-6.02148 0,-2.10864 -0.79184,-4.13176 -2.19531,-5.69141 l 5.54492,-4.99414 38.04102,-65.88867 1.55078,-7.29492 c 0.57762,0.12276 1.16999,0.1914 1.76953,0.1914 2.2586,0 4.42441,-0.89707 6.02148,-2.49414 1.59707,-1.59707 2.49414,-3.76483 2.49414,-6.02343 0,-2.10957 -0.79067,-4.13149 -2.19531,-5.69141 l 21.36914,-19.23828 17.79102,-30.81836 5.97851,-28.11914 c 0.57762,0.12276 1.17,0.1914 1.76953,0.1914 2.2586,0 4.42442,-0.89707 6.02149,-2.49414 1.59707,-1.59707 2.49414,-3.76483 2.49414,-6.02343 0,-2.2586 -0.89707,-4.42442 -2.49414,-6.02149 -1.59707,-1.59707 -3.76289,-2.49414 -6.02149,-2.49414 -0.59953,0 -1.19191,0.0667 -1.76953,0.18945 l -1.55078,-7.29296 -38.04101,-65.88868 -5.54688,-4.99414 c 1.40431,-1.55985 2.19531,-3.58209 2.19531,-5.6914 0,-2.2586 -0.89707,-4.42442 -2.49414,-6.02149 -1.59707,-1.59707 -3.76288,-2.49414 -6.02148,-2.49414 -0.59954,0 -1.19191,0.0667 -1.76953,0.18946 l -1.55078,-7.29297 -38.04102,-65.88868 -5.54687,-4.99414 c 1.40463,-1.55992 2.19726,-3.58184 2.19726,-5.6914 0,-2.2586 -0.89902,-4.42441 -2.49609,-6.02149 -1.59707,-1.59707 -3.76289,-2.49609 -6.02149,-2.49609 -0.6001,0 -1.19139,0.0684 -1.76953,0.19141 L 593.25586,105.67188 575.46289,74.855469 554.09375,55.615234 c 1.40489,-1.559985 2.19727,-3.581633 2.19727,-5.691406 0,-2.2586 -0.89707,-4.426365 -2.49414,-6.023437 -1.59708,-1.597071 -3.76484,-2.494141 -6.02344,-2.494141 -2.2586,0 -4.42442,0.89707 -6.02149,2.494141 -0.95934,0.95934 -1.66071,2.127751 -2.07226,3.394531 l -27.3418,-8.884766 h -35.58398 l -27.3418,8.884766 c -0.41155,-1.26678 -1.11293,-2.435191 -2.07227,-3.394531 -1.59707,-1.597071 -3.76288,-2.494141 -6.02148,-2.494141 -2.2586,0 -4.42441,0.89707 -6.02148,2.494141 -0.95931,0.959309 -1.66071,2.127798 -2.07227,3.394531 l -27.3418,-8.884766 z M 236.5,52.552734 l 11.79688,3.833985 h 66.67382 l 11.79688,-3.833985 c 0.36635,1.127495 0.9694,2.16957 1.77344,3.0625 l -9.89649,8.910157 -32.47265,56.246089 -2.76758,13.01954 c -0.57814,-0.12299 -1.16943,-0.19141 -1.76953,-0.19141 -0.59946,0 -1.19199,0.0687 -1.76954,0.19141 l -1.55078,-7.29297 -38.04101,-65.890628 -5.54688,-4.992188 c 0.80404,-0.89293 1.40709,-1.935005 1.77344,-3.0625 z m 106.45508,0 27.34375,8.884766 h 35.58398 l 27.3418,-8.884766 c 0.36636,1.127449 0.96943,2.169602 1.77344,3.0625 l -5.54688,4.992188 -38.04101,65.890628 -1.55078,7.29297 c -0.57763,-0.12277 -1.17,-0.19141 -1.76954,-0.19141 -0.59954,0 -1.19191,0.0686 -1.76953,0.19141 L 380.34375,105.67188 362.55078,74.855469 341.18164,55.615234 c 0.80422,-0.892998 1.40702,-1.934858 1.77344,-3.0625 z m 106.45703,0 27.3418,8.884766 h 35.58398 l 27.3418,-8.884766 c 0.36635,1.127495 0.9694,2.16957 1.77343,3.0625 l -21.36914,19.240235 -17.79101,30.816411 -5.97656,28.11914 c -0.57814,-0.12299 -1.16943,-0.19141 -1.76953,-0.19141 -0.59946,0 -1.19199,0.0687 -1.76954,0.19141 L 486.79883,105.67188 469.00781,74.855469 447.63867,55.615234 c 0.80404,-0.89293 1.40709,-1.935005 1.77344,-3.0625 z M 226.63672,58.25 c 0.57762,0.122762 1.16999,0.189453 1.76953,0.189453 0.6001,0 1.1914,-0.06646 1.76953,-0.189453 l 1.55078,7.292969 38.04102,65.888671 5.54492,4.99414 c -0.8036,0.89275 -1.40529,1.93538 -1.77148,3.0625 l -27.34375,-8.88476 h -35.58399 l -27.3418,8.88476 c -0.36627,-1.12734 -0.9696,-2.16963 -1.77343,-3.0625 l 5.54687,-4.99414 38.04102,-65.888671 z m 106.45508,0 c 0.57813,0.122989 1.16943,0.189453 1.76953,0.189453 0.59954,0 1.19191,-0.06669 1.76953,-0.189453 l 5.97852,28.119141 17.79101,30.816409 21.36914,19.24023 c -0.80345,0.89244 -1.40712,1.93383 -1.77344,3.06055 l -7.09375,-2.30469 h -76.08203 l -7.09179,2.30469 c -0.36625,-1.1265 -0.97023,-2.16823 -1.77344,-3.06055 l 9.89648,-8.91016 32.47266,-56.246089 z m 106.45703,0 c 0.57762,0.122762 1.16999,0.189453 1.76953,0.189453 0.6001,0 1.1914,-0.06646 1.76953,-0.189453 l 5.97656,28.119141 17.79297,30.816409 21.36719,19.24023 c -0.80319,0.89229 -1.40523,1.93409 -1.77149,3.06055 l -7.09374,-2.30469 h -76.08204 l -7.09375,2.30469 c -0.36632,-1.12667 -0.97001,-2.16815 -1.77343,-3.06055 l 5.54687,-4.99414 38.04102,-65.888671 z m 106.45508,0 c 0.57813,0.122989 1.16943,0.189453 1.76953,0.189453 0.59946,0 1.19198,-0.06672 1.76953,-0.189453 l 5.97851,28.119141 17.79102,30.816409 21.36914,19.24023 c -0.80345,0.89244 -1.40712,1.93383 -1.77344,3.06055 l -7.09375,-2.30469 h -76.08203 l -7.0918,2.30469 c -0.36631,-1.12672 -0.96998,-2.16811 -1.77343,-3.06055 l 21.36914,-19.24023 17.79101,-30.816409 z m -362.73243,86.49609 27.3418,8.88477 h 35.58399 l 27.34375,-8.88477 c 0.36641,1.12778 0.96913,2.16942 1.77343,3.0625 l -21.36914,19.24024 -17.79297,30.8164 -5.97656,28.11915 c -0.57813,-0.12299 -1.16943,-0.18946 -1.76953,-0.18946 -0.59954,0 -1.19191,0.0667 -1.76953,0.18946 l -1.55078,-7.29297 -38.04102,-65.88868 -5.54687,-4.99414 c 0.80409,-0.89298 1.40709,-1.93492 1.77343,-3.0625 z m 106.45704,0 7.09179,2.30469 h 76.08203 l 7.09375,-2.30469 c 0.36635,1.12763 0.96932,2.16948 1.77344,3.0625 l -13.41211,12.07618 -27.97461,48.45312 -3.75195,17.64649 c -0.57762,-0.12277 -1.16999,-0.18946 -1.76953,-0.18946 -0.6001,0 -1.1914,0.0665 -1.76953,0.18946 l -5.97657,-28.11915 -17.79296,-30.8164 -21.36719,-19.24024 c 0.80389,-0.8929 1.40716,-1.93509 1.77344,-3.0625 z m 106.45507,0 7.09375,2.30469 h 76.08204 l 7.09374,-2.30469 c 0.36641,1.12778 0.96914,2.16942 1.77344,3.0625 l -21.36914,19.24024 -17.79297,30.8164 -5.97656,28.11915 c -0.57813,-0.12299 -1.16943,-0.18946 -1.76953,-0.18946 -0.59954,0 -1.19191,0.0667 -1.76953,0.18946 l -1.55078,-7.29297 -38.04102,-65.88868 -5.54687,-4.99414 c 0.80409,-0.89298 1.40709,-1.93492 1.77343,-3.0625 z m 106.45703,0 7.0918,2.30469 h 76.08203 l 7.09375,-2.30469 c 0.36635,1.12763 0.96932,2.16948 1.77344,3.0625 l -5.54687,4.99414 -38.04102,65.88868 -1.55078,7.29297 c -0.57755,-0.12274 -1.17007,-0.18946 -1.76953,-0.18946 -0.6001,0 -1.1914,0.0665 -1.76953,0.18946 l -1.54883,-7.29297 -38.04297,-65.88868 -5.54492,-4.99414 c 0.80412,-0.89302 1.40709,-1.93487 1.77343,-3.0625 z m -329.23242,5.69727 c 0.57762,0.12276 1.17,0.18945 1.76953,0.18945 0.59954,0 1.19191,-0.0667 1.76954,-0.18945 l 1.55078,7.29297 38.04101,65.88867 5.54688,4.99414 c -0.8043,0.89309 -1.40703,1.93473 -1.77344,3.0625 l -7.09375,-2.30469 h -76.08203 l -7.09375,2.30469 c -0.36641,-1.12777 -0.96914,-2.16941 -1.77344,-3.0625 l 21.36914,-19.24023 17.79297,-30.81641 z m 106.45703,0 c 0.57755,0.12273 1.17008,0.18945 1.76954,0.18945 0.6001,0 1.19139,-0.0665 1.76953,-0.18945 l 5.97656,28.11914 17.79102,30.81641 21.36914,19.24023 c -0.80412,0.89302 -1.4071,1.93488 -1.77344,3.0625 l -7.0918,-2.30469 H 243.5918 l -7.0918,2.30469 c -0.36634,-1.12762 -0.96932,-2.16948 -1.77344,-3.0625 l 21.36914,-19.24023 17.79102,-30.81641 z m 106.45508,0 c 0.57762,0.12276 1.16999,0.18945 1.76953,0.18945 0.59954,0 1.19191,-0.0667 1.76954,-0.18945 l 1.55078,7.29297 38.04101,65.88867 5.54688,4.99414 c -0.80409,0.89299 -1.40709,1.93492 -1.77344,3.0625 l -7.09375,-2.30469 h -76.08203 l -7.09375,2.30469 c -0.36641,-1.12777 -0.96914,-2.16941 -1.77344,-3.0625 l 13.41211,-12.07617 27.97656,-48.45313 z m 106.45703,0 c 0.57755,0.12273 1.17008,0.18945 1.76954,0.18945 0.6001,0 1.19139,-0.0665 1.76953,-0.18945 l 1.54882,7.29297 38.04297,65.88867 5.54492,4.99414 c -0.80412,0.89302 -1.40709,1.93488 -1.77343,3.0625 l -7.0918,-2.30469 h -76.08203 l -7.09375,2.30469 c -0.36634,-1.12762 -0.96932,-2.16948 -1.77344,-3.0625 l 21.36914,-19.24023 17.79102,-30.81641 z m 106.45508,0 c 0.57814,0.12299 1.16943,0.18945 1.76953,0.18945 0.59954,0 1.19191,-0.0667 1.76953,-0.18945 l 1.55079,7.29297 38.04101,65.88867 5.54688,4.99414 c -0.8041,0.89299 -1.40709,1.93492 -1.77344,3.0625 l -27.3418,-8.88476 h -35.58398 l -27.34375,8.88476 c -0.36641,-1.12777 -0.96914,-2.16941 -1.77344,-3.0625 l 5.54687,-4.99414 38.04102,-65.88867 z m -43.36523,86.49609 27.34375,8.88477 h 35.58398 l 27.3418,-8.88477 c 0.36627,1.12734 0.9696,2.16964 1.77344,3.0625 l -21.36914,19.24024 -17.79297,30.8164 -5.97657,28.11914 c -0.57762,-0.12276 -1.16999,-0.18945 -1.76953,-0.18945 -0.6001,0 -1.19139,0.0665 -1.76953,0.18945 l -2.04297,-9.61328 -35.78515,-61.98047 -7.3086,-6.58203 c 0.8036,-0.89275 1.40529,-1.93538 1.77149,-3.0625 z m -425.82422,0.002 7.09375,2.30468 h 76.08203 l 7.09375,-2.30468 c 0.36625,1.12645 0.9683,2.16825 1.77148,3.06054 l -21.36718,19.24024 -17.79297,30.8164 -5.97656,28.11914 c -0.57763,-0.12276 -1.17,-0.18945 -1.76954,-0.18945 -0.59953,0 -1.19191,0.0667 -1.76953,0.18945 l -5.97656,-28.11914 -17.79297,-30.8164 -21.36719,-19.24024 c 0.80319,-0.89229 1.40524,-1.93409 1.77149,-3.06054 z m 106.45703,0 7.0918,2.30468 h 76.08398 l 7.0918,-2.30468 c 0.36632,1.12672 0.96999,2.16811 1.77344,3.06054 l -7.92579,7.13672 -34.99609,60.61328 -2.21484,10.42578 c -0.57814,-0.12298 -1.16943,-0.18945 -1.76953,-0.18945 -0.59946,0 -1.19199,0.0667 -1.76954,0.18945 l -5.97851,-28.11914 -17.79102,-30.8164 -21.36914,-19.24024 c 0.80345,-0.89243 1.40712,-1.93382 1.77344,-3.06054 z m 106.45508,0 7.09375,2.30468 h 76.08203 l 7.09375,-2.30468 c 0.36632,1.12667 0.97002,2.16814 1.77344,3.06054 l -21.36914,19.24024 -17.79297,30.8164 -5.97656,28.11914 c -0.57763,-0.12276 -1.17,-0.18945 -1.76954,-0.18945 -0.59954,0 -1.19191,0.0667 -1.76953,0.18945 l -5.97656,-28.11914 -17.79297,-30.8164 -21.36719,-19.24024 c 0.80319,-0.89229 1.40524,-1.93409 1.77149,-3.06054 z m 106.45703,0 7.09375,2.30468 h 76.08203 l 7.0918,-2.30468 c 0.36632,1.12672 0.96999,2.16811 1.77343,3.06054 l -21.36914,19.24024 -17.79101,30.8164 -5.97656,28.11914 c -0.57814,-0.12298 -1.16943,-0.18945 -1.76953,-0.18945 -0.59946,0 -1.19199,0.0667 -1.76954,0.18945 l -5.97851,-28.11914 -17.79102,-30.8164 -21.36914,-19.24024 c 0.80345,-0.89243 1.40712,-1.93382 1.77344,-3.06054 z m -329.23242,5.69531 c 0.57813,0.12299 1.16943,0.1914 1.76953,0.1914 0.59954,0 1.19191,-0.0686 1.76953,-0.1914 l 5.97852,28.11914 17.79101,30.81641 21.36914,19.24023 c -0.80404,0.89293 -1.40708,1.93501 -1.77344,3.0625 l -7.09375,-2.30469 H 83.908203 l -7.09375,2.30469 c -0.366287,-1.12723 -0.967706,-2.16971 -1.771484,-3.0625 l 5.544922,-4.99219 38.041019,-65.89062 z m 106.45703,0 c 0.57762,0.12276 1.16999,0.1914 1.76953,0.1914 0.6001,0 1.1914,-0.0684 1.76953,-0.1914 l 5.97656,28.11914 17.79297,30.81641 21.36914,19.24023 c -0.80422,0.893 -1.40701,1.93486 -1.77343,3.0625 l -7.09375,-2.30469 h -76.08204 l -7.09375,2.30469 c -0.36635,-1.12745 -0.96942,-2.1696 -1.77343,-3.0625 l 21.36914,-19.24023 17.79101,-30.81641 z m 106.45508,0 c 0.57813,0.12299 1.16943,0.1914 1.76953,0.1914 0.59954,0 1.19191,-0.0686 1.76953,-0.1914 l 5.97852,28.11914 17.79101,30.81641 21.36914,19.24023 c -0.80404,0.89293 -1.40708,1.93501 -1.77344,3.0625 l -7.09375,-2.30469 h -76.08203 l -7.09179,2.30469 c -0.36629,-1.12728 -0.96963,-2.16968 -1.77344,-3.0625 l 7.92578,-7.13477 34.99609,-60.61523 z m 106.45703,0 c 0.57762,0.12276 1.16999,0.1914 1.76953,0.1914 0.6001,0 1.1914,-0.0684 1.76953,-0.1914 l 5.97656,28.11914 17.79297,30.81641 21.36914,19.24023 c -0.80422,0.893 -1.40702,1.93486 -1.77344,3.0625 l -7.09374,-2.30469 h -76.08204 l -7.09375,2.30469 c -0.36635,-1.12745 -0.96942,-2.1696 -1.77343,-3.0625 l 21.36914,-19.24023 17.79297,-30.81641 z m 106.45508,0 c 0.57813,0.12299 1.16943,0.1914 1.76953,0.1914 0.59946,0 1.19198,-0.0687 1.76953,-0.1914 l 2.04492,9.61523 35.7832,61.97852 7.31055,6.58203 c -0.80404,0.89293 -1.40708,1.93501 -1.77344,3.0625 l -27.34179,-8.88477 h -35.58399 l -27.3418,8.88477 c -0.36635,-1.12749 -0.96939,-2.16957 -1.77343,-3.0625 l 21.36914,-19.24023 17.79101,-30.81641 z m 106.45703,0 c 0.57762,0.12276 1.16999,0.1914 1.76953,0.1914 0.59954,0 1.19191,-0.0686 1.76953,-0.1914 l 1.55078,7.29297 38.04102,65.89062 5.54492,4.99219 c -0.80378,0.89279 -1.4052,1.93527 -1.77149,3.0625 l -16.50976,-5.36523 h -57.25 L 609.0957,323.875 c -0.36635,-1.12745 -0.96942,-2.1696 -1.77343,-3.0625 l 21.36914,-19.24023 17.79297,-30.81641 z m -149.82032,86.49609 27.3418,8.88477 h 35.58399 l 27.34179,-8.88477 c 0.36607,1.12676 0.96829,2.16993 1.77149,3.0625 l -21.36719,19.24024 -17.79102,30.8164 -5.97851,28.1211 c -0.57755,-0.12273 -1.17007,-0.19141 -1.76953,-0.19141 -0.59946,0 -1.19003,0.0687 -1.76758,0.19141 l -1.55078,-7.29493 -38.04297,-65.88867 -5.54492,-4.99218 c 0.80412,-0.89302 1.40709,-1.93683 1.77343,-3.06446 z m 106.45508,0 16.50977,5.36524 h 57.25 l 16.50976,-5.36524 c 0.36628,1.12736 0.96763,2.17158 1.77149,3.06446 l -21.36719,19.23828 -17.79297,30.8164 L 656,410.37305 c -0.57762,-0.12277 -1.16999,-0.19141 -1.76953,-0.19141 -0.59954,0 -1.19191,0.0686 -1.76953,0.19141 l -5.97656,-28.1211 -17.79297,-30.8164 -21.36719,-19.24024 c 0.80316,-0.89254 1.40542,-1.93578 1.77148,-3.0625 z m -532.281247,0.002 7.09375,2.30468 h 76.082027 l 7.09375,-2.30468 c 0.36612,1.12609 0.96871,2.16843 1.77149,3.06054 l -21.36719,19.24024 -17.79101,30.8164 -5.97852,28.1211 c -0.57762,-0.12277 -1.16999,-0.19141 -1.76953,-0.19141 -0.6001,0 -1.1914,0.0684 -1.76953,0.19141 l -1.55078,-7.29493 -38.041019,-65.88867 -5.544922,-4.99218 c 0.803444,-0.89242 1.405155,-1.93581 1.771484,-3.0625 z m 106.457027,0 7.09375,2.30468 h 76.08204 l 7.09375,-2.30468 c 0.36632,1.12669 0.96804,2.17008 1.77148,3.0625 l -21.36719,19.23828 -17.79297,30.8164 -5.97656,28.1211 c -0.57813,-0.12299 -1.16943,-0.19141 -1.76953,-0.19141 -0.59954,0 -1.19191,0.0686 -1.76953,0.19141 L 223.45898,395.42969 192.85547,342.42188 181.5,332.19531 c 0.80275,-0.89208 1.40537,-1.93449 1.77148,-3.06054 z m 106.45704,0 7.09179,2.30468 h 76.08203 l 7.09375,-2.30468 c 0.36612,1.12609 0.96871,2.16843 1.77149,3.06054 l -5.54492,4.99414 -38.04102,65.88867 -1.55078,7.29493 c -0.57762,-0.12277 -1.16999,-0.19141 -1.76953,-0.19141 -0.6001,0 -1.1914,0.0684 -1.76953,0.19141 l -5.97657,-28.1211 -17.79296,-30.8164 -21.36719,-19.24024 c 0.80298,-0.89221 1.40726,-1.93426 1.77344,-3.06054 z m 106.45507,0 7.09375,2.30468 h 76.08204 l 7.09374,-2.30468 c 0.36633,1.12669 0.96805,2.17008 1.77149,3.0625 l -5.54492,4.99218 -38.04102,65.88867 -1.55078,7.29493 c -0.57813,-0.12299 -1.16943,-0.19141 -1.76953,-0.19141 -0.59954,0 -1.19191,0.0686 -1.76953,0.19141 l -2.26758,-10.66993 -34.75977,-60.20507 -8.10937,-7.30274 c 0.80275,-0.89208 1.40536,-1.93449 1.77148,-3.06054 z m -222.77539,5.69531 c 0.57762,0.12276 1.17,0.1914 1.76953,0.1914 0.59954,0 1.19191,-0.0686 1.76954,-0.1914 l 3.17578,14.94336 30.60351,53.00781 11.35742,10.22461 c -0.80377,0.89279 -1.40519,1.93527 -1.77148,3.0625 l -7.09375,-2.30469 h -76.08203 l -7.09375,2.30469 c -0.36629,-1.12723 -0.96771,-2.16971 -1.77149,-3.0625 l 21.36719,-19.23828 17.79297,-30.81836 z m 106.45703,0 c 0.57755,0.12273 1.17008,0.1914 1.76954,0.1914 0.6001,0 1.19139,-0.0684 1.76953,-0.1914 l 5.97656,28.11914 17.79102,30.81836 21.36914,19.23828 c -0.80404,0.89293 -1.40709,1.935 -1.77344,3.0625 l -27.3418,-8.88477 H 263.8418 L 236.5,416.06836 c -0.36635,-1.1275 -0.9694,-2.16957 -1.77344,-3.0625 l 21.36914,-19.23828 17.79102,-30.81836 z m 106.45508,0 c 0.57762,0.12276 1.16999,0.1914 1.76953,0.1914 0.59954,0 1.19191,-0.0686 1.76954,-0.1914 l 2.26757,10.66797 34.75977,60.20703 8.11133,7.30078 c -0.80401,0.8929 -1.40708,1.93505 -1.77344,3.0625 l -7.09375,-2.30469 h -76.08203 l -7.09375,2.30469 c -0.36629,-1.12723 -0.96771,-2.16971 -1.77149,-3.0625 l 5.54493,-4.99219 38.04101,-65.89062 z m 106.45703,0 c 0.57755,0.12273 1.17008,0.1914 1.76954,0.1914 0.6001,0 1.19139,-0.0684 1.76953,-0.1914 l 1.54882,7.29297 38.04297,65.89062 5.54492,4.99219 c -0.80403,0.89293 -1.40708,1.935 -1.77343,3.0625 l -7.0918,-2.30469 h -76.08203 l -7.09375,2.30469 c -0.36635,-1.1275 -0.9694,-2.16957 -1.77344,-3.0625 l 5.54688,-4.99219 38.04101,-65.89062 z m 106.45508,0 c 0.57814,0.12299 1.16943,0.1914 1.76953,0.1914 0.59954,0 1.19191,-0.0686 1.76953,-0.1914 l 5.97657,28.11914 17.79297,30.81836 21.36914,19.23828 c -0.80401,0.8929 -1.40708,1.93505 -1.77344,3.0625 L 630.15234,410.875 h -58.30078 l -15.98437,5.19336 c -0.36629,-1.12723 -0.96771,-2.16971 -1.77149,-3.0625 l 21.36719,-19.23828 17.79297,-30.81836 z m -469.18945,86.49804 7.09375,2.30469 h 76.08203 l 7.09375,-2.30469 c 0.36629,1.12724 0.96771,2.16972 1.77148,3.0625 l -5.54492,4.99219 -38.04101,65.88867 -1.55078,7.29493 c -0.57763,-0.12277 -1.17,-0.19141 -1.76954,-0.19141 -0.59953,0 -1.19191,0.0686 -1.76953,0.19141 l -5.97656,-28.11914 -17.79297,-30.81836 -21.36719,-19.23829 c 0.80378,-0.89278 1.4052,-1.93526 1.77149,-3.0625 z m 106.45703,0 27.3418,8.88477 h 35.58398 l 27.3418,-8.88477 c 0.36622,1.12709 0.96788,2.16979 1.77148,3.0625 l -7.77148,6.99805 -35.18946,60.95117 -2.17382,10.22657 c -0.57814,-0.12299 -1.16943,-0.19141 -1.76953,-0.19141 -0.59946,0 -1.19199,0.0687 -1.76954,0.19141 l -1.55078,-7.29493 -38.04101,-65.88867 -5.54492,-4.99414 c 0.80311,-0.89248 1.40541,-1.93391 1.77148,-3.06055 z m 106.45508,0 7.09375,2.30469 h 76.08203 l 7.09375,-2.30469 c 0.36608,1.12659 0.9684,2.1681 1.77148,3.06055 l -5.54492,4.99414 -38.04101,65.88867 -1.55078,7.29493 c -0.57763,-0.12277 -1.17,-0.19141 -1.76954,-0.19141 -0.59954,0 -1.19191,0.0686 -1.76953,0.19141 l -1.55078,-7.29493 -38.04101,-65.88867 -5.54493,-4.99219 c 0.80378,-0.89278 1.4052,-1.93526 1.77149,-3.0625 z m 106.45703,0 7.09375,2.30469 h 76.08203 l 7.0918,-2.30469 c 0.36607,1.12664 0.96837,2.16807 1.77148,3.06055 l -21.36719,19.24024 -17.79101,30.81836 -5.97656,28.11914 c -0.57814,-0.12299 -1.16943,-0.19141 -1.76953,-0.19141 -0.59946,0 -1.19199,0.0687 -1.76954,0.19141 l -5.97851,-28.11914 -17.79102,-30.81836 -21.36719,-19.24024 c 0.80312,-0.89248 1.40542,-1.93391 1.77149,-3.06055 z m 106.45508,0 15.98437,5.19336 h 58.30078 l 15.98438,-5.19336 c 0.36608,1.12659 0.9684,2.1681 1.77148,3.06055 l -5.54492,4.99414 -38.04101,65.88867 -1.55079,7.29493 c -0.57762,-0.12277 -1.16999,-0.19141 -1.76953,-0.19141 -0.6001,0 -1.19139,0.0684 -1.76953,0.19141 l -5.97656,-28.11914 -17.79297,-30.81836 -21.36719,-19.23829 c 0.80378,-0.89278 1.4052,-1.93526 1.77149,-3.0625 z m -329.23047,5.69532 c 0.57762,0.12276 1.16999,0.1914 1.76953,0.1914 0.6001,0 1.1914,-0.0684 1.76953,-0.1914 l 1.55078,7.29492 38.04102,65.88867 5.54492,4.99219 c -0.8042,0.89325 -1.40525,1.93655 -1.77148,3.06445 l -27.34375,-8.88476 h -35.58399 l -27.3418,8.88281 c -0.36607,-1.12659 -0.9684,-2.1681 -1.77148,-3.06055 l 5.54492,-4.99414 38.04102,-65.88867 z m 106.45508,0 c 0.57813,0.12299 1.16943,0.1914 1.76953,0.1914 0.59954,0 1.19191,-0.0686 1.76953,-0.1914 l 1.55078,7.29492 38.04102,65.88867 5.54492,4.99414 c -0.80353,0.89295 -1.40547,1.9352 -1.77149,3.0625 l -27.34179,-8.88476 h -35.58399 l -27.34179,8.88476 c -0.36609,-1.12749 -0.96971,-2.16945 -1.77344,-3.0625 l 7.77344,-7 35.18945,-60.95117 z m 106.45703,0 c 0.57762,0.12276 1.16999,0.1914 1.76953,0.1914 0.6001,0 1.1914,-0.0684 1.76953,-0.1914 l 5.97656,28.12109 17.79297,30.81641 21.36719,19.23828 c -0.8042,0.89325 -1.40525,1.93655 -1.77149,3.06445 l -27.34374,-8.88476 h -35.58399 l -27.3418,8.88281 c -0.36607,-1.12659 -0.9684,-2.1681 -1.77148,-3.06055 l 5.54492,-4.99414 38.04102,-65.88867 z m 106.45508,0 c 0.57813,0.12299 1.16943,0.1914 1.76953,0.1914 0.59946,0 1.19198,-0.0687 1.76953,-0.1914 l 5.97851,28.12109 17.79102,30.81641 21.36719,19.24023 c -0.80312,0.89248 -1.40541,1.93392 -1.77149,3.06055 l -7.09375,-2.30469 h -76.08203 l -7.0918,2.30469 c -0.36607,-1.12663 -0.96837,-2.16807 -1.77148,-3.06055 l 21.36719,-19.24023 17.79101,-30.81641 z m -362.73243,86.49804 27.3418,8.88477 h 35.58399 l 27.34375,-8.88477 c 0.36628,1.12724 0.9677,2.16972 1.77148,3.0625 l -5.54492,4.99219 -38.04102,65.89063 -1.55078,7.29297 c -0.57813,-0.12299 -1.16943,-0.19141 -1.76953,-0.19141 -0.59954,0 -1.19191,0.0686 -1.76953,0.19141 l -5.97852,-28.11915 -17.79101,-30.8164 -21.36914,-19.24024 c 0.80401,-0.89289 1.40708,-1.93505 1.77343,-3.0625 z m 106.45704,0 27.34179,8.88477 h 35.58399 l 27.34179,-8.88477 c 0.36636,1.1275 0.9694,2.16957 1.77344,3.0625 l -21.36914,19.24024 -17.79101,30.8164 -5.97852,28.11915 c -0.57762,-0.12277 -1.16999,-0.19141 -1.76953,-0.19141 -0.6001,0 -1.1914,0.0684 -1.76953,0.19141 L 331.54102,587.4668 293.5,521.57617 l -5.54492,-4.99219 c 0.80381,-0.89281 1.40715,-1.93522 1.77344,-3.0625 z m 106.45507,0 27.3418,8.88477 h 35.58399 l 27.34374,-8.88477 c 0.36629,1.12724 0.96771,2.16972 1.77149,3.0625 l -5.54492,4.99219 -38.04102,65.89063 -1.55078,7.29297 c -0.57813,-0.12299 -1.16943,-0.19141 -1.76953,-0.19141 -0.59954,0 -1.19191,0.0686 -1.76953,0.19141 l -5.97656,-28.11915 -17.79297,-30.8164 -21.36914,-19.24024 c 0.80401,-0.89289 1.40708,-1.93505 1.77343,-3.0625 z m 106.45703,0 7.0918,2.30469 h 76.08203 l 7.09375,-2.30469 c 0.36636,1.1275 0.9694,2.16957 1.77344,3.0625 l -21.36914,19.24024 -17.79102,30.8164 -5.97851,28.11915 c -0.57755,-0.12273 -1.17007,-0.19141 -1.76953,-0.19141 -0.6001,0 -1.1914,0.0684 -1.76953,0.19141 l -5.97657,-28.11915 -17.79101,-30.8164 -21.36914,-19.24024 c 0.80404,-0.89293 1.40708,-1.935 1.77343,-3.0625 z m -222.77539,5.69727 c 0.57755,0.12273 1.17008,0.18945 1.76954,0.18945 0.6001,0 1.19139,-0.0665 1.76953,-0.18945 l 1.54882,7.29297 38.04102,65.88867 5.54688,4.99414 c -0.80387,0.8929 -1.40718,1.93512 -1.77344,3.0625 l -27.3418,-8.88476 H 263.8418 L 236.5,600.45703 c -0.36627,-1.12738 -0.96957,-2.1696 -1.77344,-3.0625 l 5.54688,-4.99414 38.04101,-65.88867 z m 106.45508,0 c 0.57762,0.12276 1.16999,0.18945 1.76953,0.18945 0.59954,0 1.19191,-0.0667 1.76954,-0.18945 l 5.97656,28.11914 17.79297,30.81641 21.36914,19.24023 c -0.80342,0.8924 -1.40712,1.93388 -1.77344,3.06055 l -7.09375,-2.30469 h -76.08203 l -7.09375,2.30469 c -0.36625,-1.12646 -0.9683,-2.16826 -1.77149,-3.06055 l 21.36719,-19.24023 17.79297,-30.81641 z m 106.45703,0 c 0.57755,0.12273 1.17008,0.18945 1.76954,0.18945 0.6001,0 1.19139,-0.0665 1.76953,-0.18945 l 5.97656,28.11914 17.79101,30.81641 21.36914,19.24023 c -0.80386,0.8929 -1.40717,1.93512 -1.77343,3.0625 l -27.3418,-8.88476 h -35.58398 l -27.3418,8.88476 c -0.36627,-1.12738 -0.96957,-2.1696 -1.77344,-3.0625 l 5.54688,-4.99414 38.04101,-65.88867 z"
           transform="scale(0.74999999)"
           id="path9"
           inkscape:connector-curvature="0" />
      </g>
      <g
         id="patch_3" />
      <g
         id="patch_4" />
      <g
         id="patch_5" />
      <g
         id="patch_6" />
      <g
         id="patch_7" />
      <g
         id="patch_8" />
      <g
         id="patch_9" />
      <g
         id="patch_10" />
      <g
         id="patch_11" />
      <g
         id="patch_12" />
      <g
         id="patch_13" />
      <g
         id="patch_14" />
      <g
         id="patch_15" />
      <g
         id="patch_16" />
      <g
         id="patch_17" />
      <g
         id="patch_18" />
      <g
         id="patch_19" />
      <g
         id="patch_20" />
      <g
         id="patch_21" />
      <g
         id="patch_22" />
      <g
         id="patch_23" />
      <g
         id="patch_24" />
      <g
         id="patch_25" />
      <g
         id="patch_26" />
      <g
         id="patch_27" />
      <g
         id="patch_28" />
      <g
         id="patch_29" />
      <g
         id="patch_30" />
      <g
         id="patch_31" />
      <g
         id="patch_32" />
      <g
         id="patch_33" />
      <g
         id="patch_34" />
      <g
         id="patch_35" />
      <g
         id="patch_36" />
      <g
         id="patch_37" />
      <g
         id="patch_38" />
      <g
         id="patch_39" />
      <g
         id="patch_40" />
      <g
         id="patch_41" />
      <g
         id="patch_42" />
      <g
         id="patch_43" />
      <g
         id="patch_44" />
      <g
         id="patch_45" />
      <g
         id="patch_46" />
      <g
         id="patch_47" />
      <g
         id="patch_48" />
      <g
         id="patch_49" />
      <g
         id="patch_50" />
      <g
         id="patch_51" />
      <g
         id="patch_52" />
      <g
         id="patch_53" />
      <g
         id="patch_54" />
      <g
         id="patch_55" />
      <g
         id="patch_56" />
      <g
         id="patch_57" />
      <g
         id="patch_58" />
      <g
         id="patch_59" />
      <g
         id="patch_60" />
      <g
         id="patch_61" />
      <g
         id="patch_62" />
      <g
         id="patch_63" />
      <g
         id="patch_64" />
      <g
         id="patch_65" />
      <g
         id="patch_66" />
      <g
         id="patch_67" />
      <g
         id="patch_68" />
      <g
         id="patch_69" />
      <g
         id="patch_70" />
      <g
         id="patch_71" />
      <g
         id="patch_72" />
      <g
         id="patch_73" />
      <g
         id="patch_74" />
      <g
         id="patch_75" />
      <g
         id="patch_76" />
      <g
         id="patch_77" />
      <g
         id="patch_78" />
      <g
         id="patch_79" />
      <g
         id="patch_80" />
      <g
         id="patch_81" />
      <g
         id="patch_82" />
      <g
         id="patch_83" />
      <g
         id="patch_84" />
      <g
         id="patch_85" />
      <g
         id="patch_86" />
      <g
         id="patch_87" />
      <g
         id="patch_88" />
      <g
         id="patch_89" />
      <g
         id="patch_90" />
      <g
         id="patch_91" />
      <g
         id="patch_92" />
      <g
         id="patch_93" />
      <g
         id="patch_94" />
      <g
         id="patch_95" />
      <g
         id="patch_96" />
      <g
         id="patch_97" />
      <g
         id="patch_98" />
      <g
         id="patch_99" />
      <g
         id="patch_100" />
      <g
         id="patch_101" />
      <g
         id="patch_102" />
      <g
         id="patch_103" />
      <g
         id="patch_104" />
      <g
         id="patch_105" />
      <g
         id="patch_106" />
      <g
         id="patch_107" />
      <g
         id="patch_108" />
      <g
         id="patch_109" />
      <g
         id="patch_110" />
      <g
         id="patch_111" />
      <g
         id="patch_112" />
      <g
         id="patch_113" />
      <g
         id="patch_114" />
      <g
         id="patch_115" />
      <g
         id="patch_116" />
      <g
         id="patch_117" />
      <g
         id="patch_118" />
      <g
         id="patch_119" />
      <g
         id="patch_120" />
      <g
         id="patch_121" />
      <g
         id="patch_122" />
      <g
         id="patch_123" />
      <g
         id="patch_124" />
      <g
         id="patch_125" />
      <g
         id="patch_126" />
      <g
         id="patch_127" />
      <g
         id="patch_128" />
      <g
         id="patch_129" />
      <g
         id="patch_130" />
      <g
         id="patch_131" />
      <g
         id="patch_132" />
      <g
         id="patch_133" />
      <g
         id="patch_134" />
      <g
         id="patch_135" />
      <g
         id="patch_136" />
      <g
         id="patch_137" />
      <g
         id="patch_138" />
      <g
         id="patch_139" />
      <g
         id="patch_140" />
      <g
         id="patch_141" />
      <g
         id="patch_142" />
      <g
         id="patch_143" />
      <g
         id="patch_144" />
      <g
         id="patch_145" />
      <g
         id="patch_146" />
      <g
         id="patch_147" />
      <g
         id="patch_148" />
      <g
         id="patch_149" />
      <g
         id="patch_150" />
      <g
         id="patch_151" />
      <g
         id="patch_152" />
      <g
         id="patch_153" />
      <g
         id="patch_154" />
      <g
         id="patch_155" />
      <g
         id="patch_156" />
      <g
         id="patch_157" />
      <g
         id="patch_158" />
      <g
         id="patch_159" />
      <g
         id="patch_160" />
      <g
         id="patch_161" />
      <g
         id="patch_162" />
      <g
         id="patch_163" />
      <g
         id="patch_164" />
      <g
         id="patch_165" />
      <g
         id="patch_166" />
      <g
         id="patch_167" />
      <g
         id="patch_168" />
      <g
         id="patch_169" />
      <g
         id="patch_170" />
      <g
         id="patch_171" />
      <g
         id="patch_172" />
      <g
         id="patch_173" />
      <g
         id="patch_174" />
      <g
         id="patch_175" />
      <g
         id="patch_176" />
      <g
         id="patch_177" />
      <g
         id="patch_178" />
      <g
         id="patch_179" />
      <g
         id="patch_180" />
      <g
         id="patch_181" />
      <g
         id="patch_182" />
      <g
         id="patch_183" />
      <g
         id="patch_184" />
      <g
         id="patch_185" />
      <g
         id="patch_186" />
      <g
         id="patch_187" />
      <g
         id="patch_188" />
      <g
         id="patch_189" />
      <g
         id="patch_190" />
      <g
         id="patch_191" />
      <g
         id="patch_192" />
      <g
         id="patch_193" />
      <g
         id="patch_194" />
      <g
         id="patch_195" />
      <g
         id="patch_196" />
      <g
         id="patch_197" />
      <g
         id="patch_198" />
      <g
         id="patch_199" />
      <g
         id="patch_200" />
      <g
         id="patch_201" />
      <g
         id="patch_202" />
      <g
         id="patch_203" />
      <g
         id="patch_204" />
      <g
         id="patch_205" />
      <g
         id="patch_206" />
      <g
         id="patch_207" />
      <g
         id="patch_208" />
      <g
         id="patch_209" />
      <g
         id="patch_210" />
      <g
         id="patch_211" />
      <g
         id="patch_212" />
      <g
         id="patch_213" />
      <g
         id="patch_214" />
      <g
         id="patch_215" />
      <g
         id="patch_216" />
      <g
         id="patch_217" />
      <g
         id="patch_218" />
      <g
         id="patch_219" />
      <g
         id="patch_220" />
      <g
         id="patch_221" />
      <g
         id="patch_222" />
      <g
         id="patch_223" />
      <g
         id="patch_224" />
      <g
         id="patch_225" />
      <g
         id="patch_226" />
      <g
         id="patch_227" />
      <g
         id="patch_228" />
      <g
         id="patch_229" />
      <g
         id="patch_230" />
      <g
         id="patch_231" />
      <g
         id="patch_232" />
      <g
         id="patch_233" />
      <g
         id="patch_234" />
      <g
         id="patch_235" />
      <g
         id="patch_236" />
      <g
         id="patch_237" />
      <g
         id="patch_238" />
      <g
         id="patch_239" />
      <g
         id="patch_240" />
      <g
         id="patch_241" />
      <g
         id="patch_242" />
      <g
         id="patch_243" />
      <g
         id="patch_244" />
      <g
         id="patch_245" />
      <g
         id="patch_246" />
      <g
         id="patch_247" />
      <g
         id="patch_248" />
      <g
         id="patch_249" />
      <g
         id="patch_250" />
      <g
         id="patch_251" />
      <g
         id="patch_252" />
      <g
         id="patch_253" />
      <g
         id="patch_254" />
      <g
         id="patch_255" />
      <g
         id="patch_256" />
      <g
         id="patch_257" />
      <g
         id="patch_258" />
      <g
         id="patch_259" />
      <g
         id="patch_260" />
      <g
         id="patch_261" />
      <g
         id="patch_262" />
      <g
         id="patch_263" />
      <g
         id="patch_264" />
      <g
         id="patch_265" />
      <g
         id="patch_266" />
      <g
         id="patch_267" />
      <g
         id="patch_268" />
      <g
         id="patch_269" />
      <g
         id="patch_270" />
      <g
         id="patch_271" />
      <g
         id="patch_272" />
      <g
         id="patch_273" />
      <g
         id="patch_274" />
      <g
         id="patch_275" />
      <g
         id="patch_276" />
      <g
         id="patch_277" />
      <g
         id="patch_278" />
      <g
         id="patch_279" />
      <g
         id="patch_280" />
      <g
         id="patch_281" />
      <g
         id="patch_282" />
      <g
         id="patch_283" />
      <g
         id="patch_284" />
      <g
         id="patch_285" />
      <g
         id="patch_286" />
      <g
         id="patch_287" />
      <g
         id="patch_288" />
      <g
         id="patch_289" />
      <g
         id="patch_290" />
      <g
         id="patch_291" />
      <g
         id="patch_292" />
      <g
         id="patch_293" />
      <g
         id="patch_294" />
      <g
         id="patch_295" />
      <g
         id="patch_296" />
      <g
         id="patch_297" />
      <g
         id="patch_298" />
      <g
         id="patch_299" />
      <g
         id="patch_300" />
      <g
         id="patch_301" />
      <g
         id="patch_302" />
      <g
         id="patch_303" />
      <g
         id="patch_304" />
      <g
         id="patch_305" />
      <g
         id="patch_306" />
      <g
         id="patch_307" />
      <g
         id="patch_308" />
    </g>
  </g>
  <defs
     id="defs935">
    <clipPath
       id="p34f43847c3">
      <rect
         height="636.19983"
         width="713.99219"
         x="20.5625"
         y="7.1999998"
         id="rect932"
         style="stroke-linecap:butt;stroke-linejoin:round" />
    </clipPath>
  </defs>
</svg>
