<?xml version="1.0" encoding="UTF-8" standalone="no"?>
<!-- Created with matplotlib (https://matplotlib.org/) -->

<svg
   xmlns:dc="http://purl.org/dc/elements/1.1/"
   xmlns:cc="http://creativecommons.org/ns#"
   xmlns:rdf="http://www.w3.org/1999/02/22-rdf-syntax-ns#"
   xmlns:svg="http://www.w3.org/2000/svg"
   xmlns="http://www.w3.org/2000/svg"
   xmlns:sodipodi="http://sodipodi.sourceforge.net/DTD/sodipodi-0.dtd"
   xmlns:inkscape="http://www.inkscape.org/namespaces/inkscape"
   height="509.450368pt"
   version="1.1"
   viewBox="0 0 568.7725 509.450368"
   width="568.7725pt"
   id="svg937"
   sodipodi:docname="tuned_rods_big.svg"
   inkscape:version="0.92.3 (2405546, 2018-03-11)">
  <metadata
     id="metadata941">
    <rdf:RDF>
      <cc:Work
         rdf:about="">
        <dc:format>image/svg+xml</dc:format>
        <dc:type
           rdf:resource="http://purl.org/dc/dcmitype/StillImage" />
      </cc:Work>
    </rdf:RDF>
  </metadata>
  <sodipodi:namedview
     pagecolor="#ffffff"
     bordercolor="#666666"
     borderopacity="1"
     objecttolerance="10"
     gridtolerance="10"
     guidetolerance="10"
     inkscape:pageopacity="0"
     inkscape:pageshadow="2"
     inkscape:window-width="2880"
     inkscape:window-height="1491"
     id="namedview939"
     showgrid="false"
     inkscape:zoom="1.389733"
     inkscape:cx="435.66773"
     inkscape:cy="410.08381"
     inkscape:window-x="0"
     inkscape:window-y="55"
     inkscape:window-maximized="1"
     inkscape:current-layer="axes_1" />
  <defs
     id="defs4">
    <style
       type="text/css"
       id="style2">
*{stroke-linecap:butt;stroke-linejoin:round;}
  </style>
  </defs>
  <g
     id="figure_1">
    <g
       id="axes_1">
      <g
         id="patch_2"
         transform="rotate(3.189653,291.06738,246.38599)"
         style="stroke-linecap:butt;stroke-linejoin:round">
        <path
           style="stroke:#000000;stroke-width:1.33333337;stroke-linecap:butt;stroke-linejoin:miter"
           clip-path="url(#pdb28e1635c)"
           d="m 375.92188,38.591797 -32.9668,10.710937 c -0.41164,-1.266056 -1.11145,-2.431758 -2.07031,-3.390625 -1.59708,-1.59707 -3.76484,-2.49414 -6.02344,-2.49414 -2.2586,0 -4.42441,0.89707 -6.02149,2.49414 -0.95934,0.95934 -1.66071,2.125798 -2.07226,3.392579 L 319.67578,47 H 243.5918 L 236.5,49.304688 c -0.41155,-1.266781 -1.11293,-2.433239 -2.07227,-3.392579 -1.59707,-1.59707 -3.76288,-2.49414 -6.02148,-2.49414 -2.2586,0 -4.42637,0.89707 -6.02344,2.49414 -1.59707,1.597071 -2.49414,3.762885 -2.49414,6.021485 0,2.109561 0.79068,4.133436 2.19531,5.693359 l -11.10351,9.998047 -30.92774,53.56641 -3.10546,14.60937 c -0.57763,-0.12276 -1.17,-0.18945 -1.76954,-0.18945 -2.2586,0 -4.42441,0.89707 -6.02148,2.49414 -1.59707,1.59707 -2.49414,3.76288 -2.49414,6.02148 0,2.10864 0.78988,4.13176 2.19336,5.69141 l -25.76172,23.19726 -12.16797,21.07422 -7.20703,33.90625 c -0.57764,-0.12277 -1.16997,-0.1914 -1.76953,-0.1914 -2.2586,0 -4.42441,0.89707 -6.02149,2.49414 -1.59707,1.59707 -2.49414,3.76288 -2.49414,6.02148 0,2.10864 0.78989,4.13176 2.19336,5.69141 l -25.761716,23.19922 -12.167968,21.07422 -7.207032,33.90429 c -0.577548,-0.12273 -1.170072,-0.1914 -1.769531,-0.1914 -2.2586,0 -4.424414,0.89707 -6.021484,2.49414 -1.597071,1.59707 -2.494141,3.76483 -2.494141,6.02343 0,2.2586 0.89707,4.42442 2.494141,6.02149 1.59707,1.59707 3.762884,2.49414 6.021484,2.49414 0.599479,0 1.191965,-0.0687 1.769531,-0.19141 l 7.207032,33.90625 12.167968,21.07422 25.761716,23.19727 c -1.40347,1.55965 -2.19336,3.58276 -2.19336,5.6914 0,2.2586 0.89707,4.42442 2.49414,6.02149 1.59708,1.59707 3.76289,2.49414 6.02149,2.49414 0.59954,0 1.19191,-0.0667 1.76953,-0.18945 l 1.55078,7.29296 38.04102,65.88868 5.54687,4.99414 c -1.40431,1.55985 -2.19531,3.58209 -2.19531,5.6914 0,2.2586 0.89707,4.42442 2.49414,6.02149 1.59707,1.59707 3.76288,2.49414 6.02148,2.49414 0.59954,0 1.19191,-0.0667 1.76954,-0.18945 l 1.55078,7.29296 38.04101,65.88868 5.54688,4.99414 c -1.4049,1.55998 -2.19727,3.58163 -2.19727,5.6914 0,2.2586 0.89707,4.42442 2.49414,6.02149 1.59707,1.59707 3.76484,2.49609 6.02344,2.49609 2.2586,0 4.42441,-0.89902 6.02148,-2.49609 0.95934,-0.95934 1.66072,-2.1258 2.07227,-3.39258 l 32.9668,10.71289 h 24.33398 l 32.9668,-10.71289 c 0.41155,1.26678 1.11292,2.43324 2.07226,3.39258 1.59708,1.59707 3.76289,2.49609 6.02149,2.49609 2.2586,0 4.42636,-0.89902 6.02344,-2.49609 0.95886,-0.95887 1.65867,-2.12457 2.07031,-3.39063 l 7.09375,2.30469 h 76.08203 l 7.09375,-2.30469 c 0.41164,1.26606 1.1134,2.43176 2.07227,3.39063 1.59707,1.59707 3.76288,2.49609 6.02148,2.49609 2.2586,0 4.42441,-0.89902 6.02148,-2.49609 0.9589,-0.9589 1.66064,-2.12452 2.07227,-3.39063 l 7.09375,2.30469 h 76.08203 l 7.0918,-2.30469 c 0.41163,1.26611 1.11336,2.43173 2.07226,3.39063 1.59707,1.59707 3.76289,2.49609 6.02149,2.49609 2.2586,0 4.42636,-0.89902 6.02344,-2.49609 1.59707,-1.59707 2.49414,-3.76289 2.49414,-6.02149 0,-2.10933 -0.79097,-4.13155 -2.19532,-5.6914 l 25.76368,-23.19727 12.16601,-21.07422 7.20703,-33.90429 c 0.57814,0.12298 1.16943,0.18945 1.76953,0.18945 2.2586,0 4.42442,-0.89707 6.02149,-2.49414 1.59707,-1.59707 2.49609,-3.76289 2.49609,-6.02149 0,-2.10931 -0.79295,-4.13155 -2.19726,-5.6914 l 25.76367,-23.19727 12.16797,-21.07422 7.20703,-33.90429 c 0.57762,0.12276 1.16999,0.18945 1.76953,0.18945 2.2586,0 4.42441,-0.89707 6.02148,-2.49414 1.59707,-1.59707 2.49414,-3.76289 2.49414,-6.02149 0,-2.10864 -0.78988,-4.13175 -2.19336,-5.6914 l 7.79883,-7.02344 35.15625,-60.89258 2.18164,-10.26172 c 0.57764,0.12277 1.16998,0.19141 1.76953,0.19141 2.2586,0 4.42442,-0.89707 6.02149,-2.49414 1.59707,-1.59707 2.49414,-3.76289 2.49414,-6.02149 0,-2.2586 -0.89707,-4.42636 -2.49414,-6.02343 -1.59707,-1.59707 -3.76289,-2.49414 -6.02149,-2.49414 -0.59953,0 -1.19191,0.0686 -1.76953,0.1914 l -1.55078,-7.29492 -38.04101,-65.88867 -5.54493,-4.99414 c 1.40348,-1.55965 2.19336,-3.58277 2.19336,-5.69141 0,-2.2586 -0.89707,-4.42441 -2.49414,-6.02148 -1.59707,-1.59707 -3.76288,-2.49414 -6.02148,-2.49414 -0.59956,0 -1.19189,0.0686 -1.76953,0.1914 l -7.20703,-33.90625 -12.16797,-21.07422 -25.76172,-23.19726 c 1.40347,-1.55965 2.19531,-3.58277 2.19531,-5.69141 0,-2.2586 -0.89902,-4.42441 -2.49609,-6.02148 -1.59707,-1.59707 -3.76289,-2.49414 -6.02149,-2.49414 -0.6001,0 -1.19139,0.0665 -1.76953,0.18945 L 597.68164,128.50781 559.64062,62.619141 554.0957,57.625 c 1.40402,-1.55978 2.19532,-3.582331 2.19532,-5.691406 0,-2.2586 -0.89707,-4.424414 -2.49414,-6.021485 -1.59708,-1.59707 -3.76484,-2.49414 -6.02344,-2.49414 -2.2586,0 -4.42442,0.89707 -6.02149,2.49414 -0.95934,0.95934 -1.66071,2.125798 -2.07226,3.392579 L 532.58789,47 h -76.08203 l -7.09375,2.304688 c -0.41155,-1.266781 -1.11293,-2.433239 -2.07227,-3.392579 -1.59707,-1.59707 -3.76288,-2.49414 -6.02148,-2.49414 -2.2586,0 -4.42441,0.89707 -6.02148,2.49414 -0.95887,0.958867 -1.66063,2.124569 -2.07227,3.390625 L 400.25781,38.591797 Z M 236.5,54.564453 l 7.0918,2.304688 h 76.08398 l 7.0918,-2.304688 c 0.36632,1.12672 0.96999,2.168112 1.77344,3.060547 l -5.54688,4.994141 -38.04102,65.888669 -1.54882,7.29297 c -0.57814,-0.12299 -1.16943,-0.18945 -1.76953,-0.18945 -0.59946,0 -1.19199,0.0667 -1.76954,0.18945 L 278.31445,128.50781 240.27344,62.619141 234.72656,57.625 c 0.80345,-0.892435 1.40712,-1.933827 1.77344,-3.060547 z m 106.45508,0 32.9668,10.710938 h 24.33593 l 32.9668,-10.710938 c 0.36632,1.126673 0.97002,2.168145 1.77344,3.060547 l -25.76367,23.197266 -12.16797,21.074214 -7.20703,33.9043 c -0.57763,-0.12276 -1.17,-0.18945 -1.76954,-0.18945 -0.59954,0 -1.19191,0.0667 -1.76953,0.18945 L 379.11328,101.89648 366.94727,80.822266 341.18359,57.625 c 0.80319,-0.892289 1.40524,-1.934092 1.77149,-3.060547 z m 106.45703,0 7.09375,2.304688 h 76.08203 l 7.0918,-2.304688 c 0.36618,1.126309 0.96847,2.168326 1.77148,3.060547 l -12.9707,11.679688 -28.53711,49.429692 -3.62695,17.0664 c -0.57814,-0.12299 -1.16943,-0.18945 -1.76953,-0.18945 -0.59946,0 -1.19199,0.0667 -1.76954,0.18945 L 485.57031,101.89648 473.40234,80.822266 447.63867,57.625 c 0.80345,-0.892435 1.40712,-1.933827 1.77344,-3.060547 z m -222.77539,5.695313 c 0.57762,0.122762 1.16999,0.191406 1.76953,0.191406 0.6001,0 1.1914,-0.06842 1.76953,-0.191406 l 1.55078,7.292968 38.04102,65.890626 5.54492,4.99219 c -0.80378,0.89278 -1.4052,1.93526 -1.77148,3.0625 l -11.28711,-3.66797 h -67.69727 l -11.28516,3.66601 c -0.36641,-1.12678 -0.96984,-2.16811 -1.77343,-3.06054 l 11.10547,-9.99805 30.92773,-53.566406 z m 106.45508,0 c 0.57813,0.122989 1.16943,0.191406 1.76953,0.191406 0.59954,0 1.19191,-0.06864 1.76953,-0.191406 l 7.20703,33.904296 12.16797,21.074218 25.76367,23.19727 c -0.80404,0.89293 -1.40708,1.935 -1.77344,3.0625 l -10.98437,-3.57032 h -68.29883 l -10.98633,3.57032 c -0.36628,-1.12724 -0.9677,-2.16972 -1.77148,-3.0625 L 293.5,133.44336 331.54102,67.552734 Z m 106.45703,0 c 0.57762,0.122762 1.16999,0.191406 1.76953,0.191406 0.6001,0 1.1914,-0.06842 1.76953,-0.191406 l 7.20703,33.904296 12.16602,21.074218 25.76367,23.19727 c -0.80378,0.89278 -1.4052,1.93526 -1.77149,3.0625 l -32.96874,-10.71289 h -24.33399 l -32.9668,10.71289 c -0.36635,-1.12745 -0.96942,-2.16961 -1.77343,-3.0625 l 25.76367,-23.19727 12.16797,-21.074218 z m 106.45508,0 c 0.57813,0.122989 1.16943,0.191406 1.76953,0.191406 0.59946,0 1.19198,-0.06868 1.76953,-0.191406 l 1.55078,7.292968 38.04102,65.890626 5.54687,4.99219 c -0.80404,0.89293 -1.40708,1.935 -1.77344,3.0625 l -32.96679,-10.71289 h -24.33399 l -32.9668,10.71289 c -0.36635,-1.1275 -0.96939,-2.16957 -1.77343,-3.0625 l 12.97265,-11.67969 28.53711,-49.427735 z M 273.54102,146.75586 c 0.36627,1.12736 0.96762,2.17158 1.77148,3.06445 l -5.54492,4.99219 -38.04102,65.88867 -1.55078,7.29492 c -0.57815,-0.12299 -1.16941,-0.1914 -1.76953,-0.1914 -0.59956,0 -1.19189,0.0686 -1.76953,0.1914 L 222.60156,209.01758 195.92188,162.80469 181.5,149.81836 c 0.80275,-0.89208 1.40537,-1.9345 1.77148,-3.06055 l 11.28516,3.66602 h 67.69727 z m 16.18554,0 10.98633,3.57031 h 68.29883 l 10.98437,-3.57031 c 0.36607,1.12676 0.96829,2.16993 1.77149,3.0625 l -25.76172,23.19726 -12.16797,21.07422 -7.20703,33.90625 c -0.57764,-0.12277 -1.16997,-0.1914 -1.76953,-0.1914 -0.60012,0 -1.19138,0.0684 -1.76953,0.1914 L 331.54102,220.70117 293.5,154.8125 l -5.54492,-4.99414 c 0.80337,-0.89264 1.40535,-1.93559 1.77148,-3.0625 z m 196.72656,0 c 0.36628,1.12736 0.96763,2.17158 1.77149,3.06445 l -14.94727,13.45703 -26.00976,45.04883 -4.17969,19.66992 c -0.57815,-0.12299 -1.16941,-0.1914 -1.76953,-0.1914 -0.59956,0 -1.19189,0.0686 -1.76953,0.1914 l -2.34766,-11.04101 -34.39844,-59.58008 -8.39062,-7.55664 c 0.80275,-0.89208 1.40536,-1.9345 1.77148,-3.06055 l 32.9668,10.71094 h 24.33399 z m 16.1875,0 32.9668,10.71289 h 24.33399 l 32.96679,-10.71289 c 0.36607,1.12676 0.96829,2.16993 1.77149,3.0625 l -25.76172,23.19726 -12.16797,21.07422 -7.20703,33.90625 c -0.57757,-0.12273 -1.17005,-0.1914 -1.76953,-0.1914 -0.60012,0 -1.19138,0.0684 -1.76953,0.1914 l -7.20703,-33.90625 -12.16602,-21.07422 -25.76172,-23.19726 c 0.8032,-0.89257 1.40542,-1.93574 1.77148,-3.0625 z m -329.23242,5.69726 c 0.57762,0.12277 1.17,0.19141 1.76953,0.19141 0.59954,0 1.19191,-0.0686 1.76954,-0.19141 l 4.0332,18.97852 26.68164,46.21094 14.42187,12.98633 c -0.80377,0.89278 -1.40519,1.93526 -1.77148,3.0625 l -7.09375,-2.30469 h -76.08203 l -7.09375,2.30469 c -0.36642,-1.12765 -0.96922,-2.16951 -1.77344,-3.0625 l 25.76367,-23.19727 12.16797,-21.07422 z m 106.45703,0 c 0.57755,0.12274 1.17008,0.19141 1.76954,0.19141 0.6001,0 1.19139,-0.0684 1.76953,-0.19141 l 1.54882,7.29297 38.04102,65.89063 5.54688,4.99219 c -0.80404,0.89293 -1.40709,1.935 -1.77344,3.0625 l -7.0918,-2.30469 H 243.5918 l -7.0918,2.30469 c -0.36635,-1.1275 -0.9694,-2.16957 -1.77344,-3.0625 l 5.54688,-4.99219 38.04101,-65.89063 z m 106.45508,0 c 0.57762,0.12277 1.16999,0.19141 1.76953,0.19141 0.59954,0 1.19191,-0.0686 1.76954,-0.19141 l 2.34765,11.04102 34.39844,59.57813 8.39258,7.55664 c -0.80401,0.89289 -1.40708,1.93505 -1.77344,3.0625 l -7.09375,-2.30469 h -76.08203 l -7.09375,2.30469 c -0.36629,-1.12724 -0.96771,-2.16972 -1.77149,-3.0625 l 25.76368,-23.19727 12.16601,-21.07422 z m 106.45703,0 c 0.57755,0.12274 1.17008,0.19141 1.76954,0.19141 0.6001,0 1.19139,-0.0684 1.76953,-0.19141 l 7.20703,33.9043 12.16601,21.07422 25.76367,23.19727 c -0.80403,0.89293 -1.40708,1.935 -1.77343,3.0625 l -7.0918,-2.30469 h -76.08203 l -7.09375,2.30469 c -0.36635,-1.1275 -0.9694,-2.16957 -1.77344,-3.0625 l 14.94727,-13.45899 26.00976,-45.04883 z m 106.45508,0 c 0.57814,0.12299 1.16943,0.19141 1.76953,0.19141 0.59954,0 1.19191,-0.0686 1.76953,-0.19141 l 7.20704,33.9043 12.16796,21.07422 25.76368,23.19727 c -0.80401,0.89289 -1.40708,1.93505 -1.77344,3.0625 l -32.9668,-10.71094 h -24.33398 l -32.96875,10.71094 c -0.36629,-1.12724 -0.96771,-2.16972 -1.77149,-3.0625 l 25.76368,-23.19727 12.16601,-21.07422 z m -469.18945,86.49805 7.09375,2.30469 h 76.08203 l 7.09375,-2.30469 c 0.36629,1.12723 0.96771,2.16972 1.77148,3.0625 l -5.54492,4.99219 -38.04101,65.88867 -1.55078,7.29492 c -0.57763,-0.12276 -1.17,-0.1914 -1.76954,-0.1914 -0.59953,0 -1.19191,0.0686 -1.76953,0.1914 l -7.20703,-33.90429 -12.16797,-21.07422 -25.76172,-23.19727 c 0.80378,-0.89278 1.4052,-1.93527 1.77149,-3.0625 z m 106.45703,0 7.0918,2.30469 h 76.08398 l 7.0918,-2.30469 c 0.36607,1.12663 0.96837,2.16807 1.77148,3.06055 l -25.76172,23.19922 -12.16796,21.07422 -7.20508,33.90429 c -0.57814,-0.12299 -1.16943,-0.1914 -1.76953,-0.1914 -0.59946,0 -1.19199,0.0687 -1.76954,0.1914 l -1.55078,-7.29492 -38.04101,-65.88867 -5.54492,-4.99414 c 0.80311,-0.89248 1.40541,-1.93392 1.77148,-3.06055 z m 106.45508,0 7.09375,2.30469 h 76.08203 l 7.09375,-2.30469 c 0.36608,1.12659 0.9684,2.1681 1.77148,3.06055 l -5.54492,4.99414 -38.04101,65.88867 -1.55078,7.29492 c -0.57763,-0.12276 -1.17,-0.1914 -1.76954,-0.1914 -0.59954,0 -1.19191,0.0686 -1.76953,0.1914 l -7.20703,-33.90429 -12.16601,-21.07422 -25.76368,-23.19727 c 0.80378,-0.89278 1.4052,-1.93527 1.77149,-3.0625 z m 106.45703,0 7.09375,2.30469 h 76.08203 l 7.0918,-2.30469 c 0.36607,1.12663 0.96837,2.16807 1.77148,3.06055 l -25.76172,23.19922 -12.16601,21.07422 -7.20703,33.90429 c -0.57814,-0.12299 -1.16943,-0.1914 -1.76953,-0.1914 -0.59946,0 -1.19199,0.0687 -1.76954,0.1914 l -7.20703,-33.90429 -12.16797,-21.07422 -25.76172,-23.19922 c 0.80312,-0.89248 1.40542,-1.93392 1.77149,-3.06055 z m 106.45508,0 32.96875,10.71094 h 24.33398 l 32.9668,-10.71094 c 0.36608,1.12659 0.9684,2.1681 1.77148,3.06055 l -5.54492,4.99414 -38.04101,65.88867 -1.55079,7.29492 c -0.57762,-0.12276 -1.16999,-0.1914 -1.76953,-0.1914 -0.6001,0 -1.19139,0.0684 -1.76953,0.1914 l -2.86523,-13.47656 -32.0293,-55.47656 -10.24219,-9.22266 c 0.80378,-0.89278 1.4052,-1.93527 1.77149,-3.0625 z m -435.6875,5.69531 c 0.57813,0.12299 1.16943,0.19141 1.76953,0.19141 0.59954,0 1.19191,-0.0686 1.76953,-0.19141 l 7.20703,33.9043 12.16797,21.07422 25.76172,23.19922 c -0.80311,0.89248 -1.40541,1.93391 -1.77149,3.06055 L 134.11719,315.17383 H 109.7832 l -32.968747,10.71094 c -0.366287,-1.12724 -0.967706,-2.16972 -1.771484,-3.0625 L 100.80664,299.625 112.97266,278.55078 Z m 106.45703,0 c 0.57762,0.12277 1.16999,0.19141 1.76953,0.19141 0.6001,0 1.1914,-0.0684 1.76953,-0.19141 l 1.55078,7.29493 38.04102,65.88867 5.54492,4.99219 c -0.80378,0.89278 -1.4052,1.93526 -1.77148,3.0625 l -32.96875,-10.71094 h -24.33399 l -32.9668,10.71094 c -0.36607,-1.12659 -0.9684,-2.1681 -1.77148,-3.06055 l 5.54492,-4.99414 38.04102,-65.88867 z m 106.45508,0 c 0.57813,0.12299 1.16943,0.19141 1.76953,0.19141 0.59954,0 1.19191,-0.0686 1.76953,-0.19141 l 7.20703,33.9043 12.16797,21.07422 25.76172,23.19922 c -0.80312,0.89248 -1.40541,1.93391 -1.77149,3.06055 l -7.09375,-2.30469 h -76.08203 l -7.09375,2.30469 c -0.36614,-1.12678 -0.96819,-2.168 -1.77148,-3.06055 l 25.76367,-23.19922 12.16602,-21.07422 z m 106.45703,0 c 0.57762,0.12277 1.16999,0.19141 1.76953,0.19141 0.6001,0 1.1914,-0.0684 1.76953,-0.19141 l 7.20703,33.9043 12.16602,21.07422 25.76367,23.19727 c -0.80378,0.89278 -1.4052,1.93526 -1.77149,3.0625 l -7.09374,-2.30469 h -76.08204 l -7.09375,2.30469 c -0.36607,-1.12659 -0.9684,-2.1681 -1.77148,-3.06055 l 5.54492,-4.99414 38.04102,-65.88867 z m 106.45508,0 c 0.57813,0.12299 1.16943,0.19141 1.76953,0.19141 0.59946,0 1.19198,-0.0687 1.76953,-0.19141 l 2.86523,13.47657 32.0293,55.47656 10.24219,9.22266 c -0.8036,0.89271 -1.40527,1.93541 -1.77149,3.0625 l -7.09375,-2.30469 h -76.08203 l -7.0918,2.30469 c -0.36607,-1.12664 -0.96837,-2.16807 -1.77148,-3.06055 l 25.76172,-23.19922 12.16602,-21.07422 z m 106.45703,0 c 0.57762,0.12277 1.16999,0.19141 1.76953,0.19141 0.59954,0 1.19191,-0.0686 1.76953,-0.19141 l 1.55078,7.29493 38.04102,65.88867 5.54492,4.99219 c -0.80378,0.89278 -1.4052,1.93526 -1.77149,3.0625 l -7.09375,-2.30469 h -76.08203 l -7.09375,2.30469 c -0.36607,-1.12659 -0.9684,-2.1681 -1.77148,-3.06055 l 5.54492,-4.99414 38.04102,-65.88867 z M 76.814453,331.14453 109.7832,341.85547 h 24.33399 l 32.96679,-10.71094 c 0.36636,1.1275 0.9694,2.16957 1.77344,3.0625 l -25.76367,23.19727 -12.16797,21.07422 -7.20703,33.90429 c -0.57762,-0.12276 -1.16999,-0.1914 -1.76953,-0.1914 -0.6001,0 -1.1914,0.0684 -1.76953,0.1914 L 112.97266,378.47852 100.80664,357.4043 75.042969,334.20703 c 0.803778,-0.89278 1.405197,-1.93527 1.771484,-3.0625 z m 106.457027,0 32.9668,10.71094 h 24.33399 l 32.96875,-10.71094 c 0.36628,1.12723 0.9677,2.16972 1.77148,3.0625 l -25.76367,23.19727 -12.16602,21.07422 -7.20703,33.90429 c -0.57813,-0.12299 -1.16943,-0.1914 -1.76953,-0.1914 -0.59954,0 -1.19191,0.0686 -1.76953,0.1914 l -7.20703,-33.90429 -12.16797,-21.07422 -25.76367,-23.19727 c 0.80401,-0.8929 1.40708,-1.93505 1.77343,-3.0625 z m 106.45508,0 7.09375,2.30469 h 76.08203 l 7.09375,-2.30469 c 0.36636,1.1275 0.9694,2.16957 1.77344,3.0625 l -5.54687,4.99219 -38.04102,65.89062 -1.55078,7.29297 c -0.57762,-0.12276 -1.16999,-0.1914 -1.76953,-0.1914 -0.6001,0 -1.1914,0.0684 -1.76953,0.1914 l -7.20703,-33.90429 -12.16602,-21.07422 -25.76367,-23.19727 c 0.80378,-0.89278 1.4052,-1.93527 1.77148,-3.0625 z m 106.45703,0 7.09375,2.30469 h 76.08204 l 7.09374,-2.30469 c 0.36629,1.12723 0.96771,2.16972 1.77149,3.0625 l -25.76367,23.19727 -12.16602,21.07422 -7.20703,33.90429 c -0.57813,-0.12299 -1.16943,-0.1914 -1.76953,-0.1914 -0.59954,0 -1.19191,0.0686 -1.76953,0.1914 l -1.55078,-7.29297 -38.04102,-65.89062 -5.54687,-4.99219 c 0.80401,-0.8929 1.40708,-1.93505 1.77343,-3.0625 z m 106.45703,0 7.0918,2.30469 h 76.08203 l 7.09375,-2.30469 c 0.36636,1.1275 0.9694,2.16957 1.77344,3.0625 l -15.59766,14.04297 -25.17773,43.60938 -4.36328,20.52343 c -0.57755,-0.12273 -1.17007,-0.1914 -1.76953,-0.1914 -0.6001,0 -1.1914,0.0684 -1.76953,0.1914 l -7.20703,-33.90429 -12.16602,-21.07422 -25.76367,-23.19727 c 0.80404,-0.89293 1.40708,-1.935 1.77343,-3.0625 z m 106.45508,0 7.09375,2.30469 h 76.08203 l 7.09375,-2.30469 c 0.36629,1.12723 0.96771,2.16972 1.77149,3.0625 l -7.79883,7.02149 -35.15625,60.89453 L 656,412.38281 c -0.57762,-0.12276 -1.16999,-0.1914 -1.76953,-0.1914 -0.59954,0 -1.19191,0.0686 -1.76953,0.1914 l -1.55078,-7.29297 -38.04102,-65.89062 -5.54687,-4.99219 c 0.80401,-0.8929 1.40708,-1.93505 1.77343,-3.0625 z m -435.6875,5.69531 c 0.57764,0.12277 1.16998,0.19141 1.76953,0.19141 0.59956,0 1.1919,-0.0686 1.76954,-0.19141 l 7.20703,33.90625 12.16797,21.07422 25.76171,23.19531 c -0.80344,0.89242 -1.40515,1.93581 -1.77148,3.0625 l -32.9668,-10.71093 h -24.33593 l -32.9668,10.71093 c -0.36633,-1.12669 -0.96804,-2.17008 -1.77149,-3.0625 l 25.76172,-23.19531 12.16797,-21.07422 z m 106.45703,0 c 0.57757,0.12274 1.17006,0.19141 1.76954,0.19141 0.60012,0 1.19137,-0.0684 1.76953,-0.19141 l 7.20508,33.90625 12.16796,21.07422 25.76172,23.19727 c -0.80319,0.89257 -1.40542,1.93574 -1.77148,3.0625 l -32.9668,-10.71289 H 269.4668 L 236.5,418.08008 c -0.36606,-1.12676 -0.96829,-2.16993 -1.77148,-3.0625 l 25.76171,-23.19727 12.16797,-21.07422 z m 106.45508,0 c 0.57764,0.12277 1.16998,0.19141 1.76953,0.19141 0.59956,0 1.1919,-0.0686 1.76954,-0.19141 l 1.55078,7.29493 38.04101,65.88867 5.54492,4.99414 c -0.80275,0.89208 -1.40536,1.9345 -1.77148,3.06054 l -32.9668,-10.71093 h -24.33593 l -32.9668,10.71093 c -0.36633,-1.12669 -0.96804,-2.17008 -1.77149,-3.0625 l 5.54493,-4.99218 38.04101,-65.88867 z m 106.45703,0 c 0.57757,0.12274 1.17006,0.19141 1.76954,0.19141 0.60012,0 1.19137,-0.0684 1.76953,-0.19141 l 7.20703,33.90625 12.16601,21.07422 25.76172,23.19727 c -0.80319,0.89257 -1.40542,1.93574 -1.77148,3.0625 l -32.9668,-10.71289 h -24.33398 l -32.9668,10.71289 c -0.36606,-1.12676 -0.96829,-2.16993 -1.77149,-3.0625 l 25.76172,-23.19727 12.16797,-21.07422 z m 106.45508,0 c 0.57815,0.123 1.16941,0.19141 1.76953,0.19141 0.59956,0 1.1919,-0.0686 1.76953,-0.19141 l 1.55079,7.29493 38.04101,65.88867 5.54492,4.99414 c -0.80275,0.89208 -1.40536,1.9345 -1.77148,3.06054 l -32.9668,-10.71093 h -24.33398 l -32.96875,10.71289 c -0.36628,-1.12736 -0.96763,-2.17158 -1.77149,-3.06446 l 15.59571,-14.04101 25.17968,-43.61133 z m -469.18945,86.49805 32.9668,10.71289 h 24.33593 l 32.9668,-10.71289 c 0.36642,1.12764 0.96922,2.1695 1.77344,3.0625 l -25.76367,23.19727 -12.16797,21.07422 -7.20703,33.90429 c -0.57763,-0.12276 -1.17,-0.18945 -1.76954,-0.18945 -0.59953,0 -1.19191,0.0667 -1.76953,0.18945 l -1.55078,-7.29297 -38.04101,-65.89062 -5.54493,-4.99219 c 0.80378,-0.89278 1.4052,-1.93527 1.77149,-3.0625 z m 106.45703,0 32.9668,10.71289 h 24.33398 l 32.9668,-10.71289 c 0.36635,1.1275 0.9694,2.16957 1.77344,3.0625 l -5.54688,4.99219 -38.04102,65.89062 -1.54882,7.29297 c -0.57814,-0.12299 -1.16943,-0.18945 -1.76953,-0.18945 -0.59946,0 -1.19199,0.0667 -1.76954,0.18945 l -1.55078,-7.29297 -38.04101,-65.89062 -5.54688,-4.99219 c 0.80404,-0.89293 1.40709,-1.935 1.77344,-3.0625 z m 106.45508,0 32.9668,10.71289 h 24.33593 l 32.9668,-10.71289 c 0.36636,1.12745 0.96943,2.1696 1.77344,3.0625 l -5.54688,4.99219 -38.04101,65.89062 -1.55078,7.29297 c -0.57763,-0.12276 -1.17,-0.18945 -1.76954,-0.18945 -0.59954,0 -1.19191,0.0667 -1.76953,0.18945 l -1.55078,-7.29297 -38.04101,-65.89062 -5.54493,-4.99219 c 0.80378,-0.89278 1.4052,-1.93527 1.77149,-3.0625 z m 106.45703,0 32.9668,10.71289 h 24.33398 l 32.9668,-10.71289 c 0.36635,1.1275 0.9694,2.16957 1.77343,3.0625 l -25.76367,23.19727 -12.16601,21.07422 -7.20703,33.90429 c -0.57814,-0.12299 -1.16943,-0.18945 -1.76953,-0.18945 -0.59946,0 -1.19199,0.0667 -1.76954,0.18945 l -7.20703,-33.90429 -12.16797,-21.07422 -25.76367,-23.19727 c 0.80404,-0.89293 1.40709,-1.935 1.77344,-3.0625 z m 106.45508,0 32.96875,10.71289 h 24.33398 l 32.9668,-10.71289 c 0.36636,1.12745 0.96943,2.1696 1.77344,3.0625 l -25.76368,23.19727 -12.16796,21.07422 -7.20704,33.90429 c -0.57762,-0.12276 -1.16999,-0.18945 -1.76953,-0.18945 -0.6001,0 -1.19139,0.0665 -1.76953,0.18945 l -7.20703,-33.90429 -12.16601,-21.07422 -25.76368,-23.19727 c 0.80378,-0.89278 1.4052,-1.93527 1.77149,-3.0625 z m -329.23047,5.69727 c 0.57762,0.12276 1.16999,0.18945 1.76953,0.18945 0.6001,0 1.1914,-0.0665 1.76953,-0.18945 l 1.55078,7.29296 38.04102,65.88868 5.54492,4.99414 c -0.80319,0.89229 -1.40523,1.93409 -1.77148,3.06054 l -7.09375,-2.30468 h -76.08204 l -7.09375,2.30468 c -0.36632,-1.12667 -0.97001,-2.16814 -1.77343,-3.06054 l 25.76367,-23.19727 12.16797,-21.07422 z m 106.45508,0 c 0.57813,0.12299 1.16943,0.18945 1.76953,0.18945 0.59954,0 1.19191,-0.0667 1.76953,-0.18945 l 1.55078,7.29296 38.04102,65.88868 5.54687,4.99414 c -0.80345,0.89243 -1.40712,1.93382 -1.77344,3.06054 l -7.09375,-2.30468 h -76.08203 l -7.09375,2.30468 c -0.36625,-1.12645 -0.9683,-2.16825 -1.77148,-3.06054 L 293.5,502.2168 331.54102,436.32812 Z m 106.45703,0 c 0.57762,0.12276 1.16999,0.18945 1.76953,0.18945 0.6001,0 1.1914,-0.0665 1.76953,-0.18945 l 7.20703,33.90429 12.16602,21.07422 25.76367,23.19727 c -0.80319,0.89229 -1.40523,1.93409 -1.77149,3.06054 l -7.09374,-2.30468 h -76.08204 l -7.09375,2.30468 c -0.36632,-1.12667 -0.97001,-2.16814 -1.77343,-3.06054 l 5.54687,-4.99414 38.04102,-65.88868 z m 106.45508,0 c 0.57813,0.12299 1.16943,0.18945 1.76953,0.18945 0.59946,0 1.19198,-0.0667 1.76953,-0.18945 l 7.20703,33.90429 12.16797,21.07422 25.76367,23.19727 c -0.80386,0.89289 -1.40717,1.93511 -1.77344,3.0625 l -32.96679,-10.71289 h -24.33399 l -32.9668,10.71289 c -0.36626,-1.12739 -0.96957,-2.16961 -1.77343,-3.0625 l 25.76367,-23.19727 12.16602,-21.07422 z m -362.73243,86.49609 7.09375,2.30469 h 76.08204 l 7.09375,-2.30469 c 0.36641,1.12777 0.96913,2.16941 1.77343,3.0625 l -5.54687,4.99414 -38.04102,65.88867 -1.55078,7.29297 c -0.57813,-0.12299 -1.16943,-0.18945 -1.76953,-0.18945 -0.59954,0 -1.19191,0.0667 -1.76953,0.18945 l -1.55078,-7.29297 -38.04102,-65.88867 -5.54687,-4.99414 c 0.80409,-0.89299 1.40709,-1.93492 1.77343,-3.0625 z m 106.45508,0 7.09375,2.30469 h 76.08203 l 7.09375,-2.30469 c 0.36635,1.12762 0.96932,2.16948 1.77344,3.0625 l -5.54687,4.99414 -38.04102,65.88867 -1.55078,7.29297 c -0.57762,-0.12276 -1.16999,-0.18945 -1.76953,-0.18945 -0.6001,0 -1.1914,0.0665 -1.76953,0.18945 l -1.55078,-7.29297 -38.04102,-65.88867 -5.54492,-4.99414 c 0.80386,-0.89288 1.40521,-1.93514 1.77148,-3.0625 z m 106.45703,0 7.09375,2.30469 h 76.08204 l 7.09374,-2.30469 c 0.36628,1.12736 0.96763,2.16962 1.77149,3.0625 l -25.76367,23.19727 -12.16602,21.07421 -7.20703,33.9043 c -0.57813,-0.12299 -1.16943,-0.18945 -1.76953,-0.18945 -0.59954,0 -1.19191,0.0667 -1.76953,0.18945 l -1.55078,-7.29297 -38.04102,-65.88867 -5.54687,-4.99414 c 0.80409,-0.89299 1.40709,-1.93492 1.77343,-3.0625 z m 106.45703,0 32.9668,10.71289 h 24.33399 l 32.96679,-10.71289 c 0.36635,1.12762 0.96932,2.16948 1.77344,3.0625 l -25.76367,23.19727 -12.16797,21.07421 -7.20703,33.9043 c -0.57755,-0.12273 -1.17007,-0.18945 -1.76953,-0.18945 -0.6001,0 -1.1914,0.0665 -1.76953,0.18945 l -7.20703,-33.9043 -12.16602,-21.07421 -25.76367,-23.19727 c 0.80412,-0.89302 1.40709,-1.93488 1.77343,-3.0625 z m -222.77539,5.69727 c 0.57755,0.12273 1.17008,0.18945 1.76954,0.18945 0.6001,0 1.19139,-0.0665 1.76953,-0.18945 l 1.54882,7.29296 38.04102,65.88868 5.54688,4.99414 c -0.80412,0.89302 -1.4071,1.93487 -1.77344,3.0625 l -32.9668,-10.71289 H 269.4668 L 236.5,602.4668 c -0.36634,-1.12763 -0.96932,-2.16948 -1.77344,-3.0625 l 5.54688,-4.99414 38.04101,-65.88868 z m 106.45508,0 c 0.57762,0.12276 1.16999,0.18945 1.76953,0.18945 0.59954,0 1.19191,-0.0667 1.76954,-0.18945 l 1.55078,7.29296 38.04101,65.88868 5.54688,4.99414 c -0.80409,0.89298 -1.40709,1.93492 -1.77344,3.0625 l -7.09375,-2.30469 h -76.08203 l -7.09375,2.30469 c -0.36641,-1.12778 -0.96914,-2.16942 -1.77344,-3.0625 l 5.54688,-4.99414 38.04101,-65.88868 z m 106.45703,0 c 0.57755,0.12273 1.17008,0.18945 1.76954,0.18945 0.6001,0 1.19139,-0.0665 1.76953,-0.18945 l 7.20703,33.90429 12.16601,21.07422 25.76367,23.19727 c -0.80412,0.89302 -1.40709,1.93487 -1.77343,3.0625 l -7.0918,-2.30469 h -76.08203 l -7.09375,2.30469 c -0.36634,-1.12763 -0.96932,-2.16948 -1.77344,-3.0625 l 25.76367,-23.19727 12.16797,-21.07422 z"
           transform="scale(0.75)"
           id="path9"
           inkscape:connector-curvature="0" />
      </g>
      <g
         id="patch_3" />
      <g
         id="patch_4" />
      <g
         id="patch_5" />
      <g
         id="patch_6" />
      <g
         id="patch_7" />
      <g
         id="patch_8" />
      <g
         id="patch_9" />
      <g
         id="patch_10" />
      <g
         id="patch_11" />
      <g
         id="patch_12" />
      <g
         id="patch_13" />
      <g
         id="patch_14" />
      <g
         id="patch_15" />
      <g
         id="patch_16" />
      <g
         id="patch_17" />
      <g
         id="patch_18" />
      <g
         id="patch_19" />
      <g
         id="patch_20" />
      <g
         id="patch_21" />
      <g
         id="patch_22" />
      <g
         id="patch_23" />
      <g
         id="patch_24" />
      <g
         id="patch_25" />
      <g
         id="patch_26" />
      <g
         id="patch_27" />
      <g
         id="patch_28" />
      <g
         id="patch_29" />
      <g
         id="patch_30" />
      <g
         id="patch_31" />
      <g
         id="patch_32" />
      <g
         id="patch_33" />
      <g
         id="patch_34" />
      <g
         id="patch_35" />
      <g
         id="patch_36" />
      <g
         id="patch_37" />
      <g
         id="patch_38" />
      <g
         id="patch_39" />
      <g
         id="patch_40" />
      <g
         id="patch_41" />
      <g
         id="patch_42" />
      <g
         id="patch_43" />
      <g
         id="patch_44" />
      <g
         id="patch_45" />
      <g
         id="patch_46" />
      <g
         id="patch_47" />
      <g
         id="patch_48" />
      <g
         id="patch_49" />
      <g
         id="patch_50" />
      <g
         id="patch_51" />
      <g
         id="patch_52" />
      <g
         id="patch_53" />
      <g
         id="patch_54" />
      <g
         id="patch_55" />
      <g
         id="patch_56" />
      <g
         id="patch_57" />
      <g
         id="patch_58" />
      <g
         id="patch_59" />
      <g
         id="patch_60" />
      <g
         id="patch_61" />
      <g
         id="patch_62" />
      <g
         id="patch_63" />
      <g
         id="patch_64" />
      <g
         id="patch_65" />
      <g
         id="patch_66" />
      <g
         id="patch_67" />
      <g
         id="patch_68" />
      <g
         id="patch_69" />
      <g
         id="patch_70" />
      <g
         id="patch_71" />
      <g
         id="patch_72" />
      <g
         id="patch_73" />
      <g
         id="patch_74" />
      <g
         id="patch_75" />
      <g
         id="patch_76" />
      <g
         id="patch_77" />
      <g
         id="patch_78" />
      <g
         id="patch_79" />
      <g
         id="patch_80" />
      <g
         id="patch_81" />
      <g
         id="patch_82" />
      <g
         id="patch_83" />
      <g
         id="patch_84" />
      <g
         id="patch_85" />
      <g
         id="patch_86" />
      <g
         id="patch_87" />
      <g
         id="patch_88" />
      <g
         id="patch_89" />
      <g
         id="patch_90" />
      <g
         id="patch_91" />
      <g
         id="patch_92" />
      <g
         id="patch_93" />
      <g
         id="patch_94" />
      <g
         id="patch_95" />
      <g
         id="patch_96" />
      <g
         id="patch_97" />
      <g
         id="patch_98" />
      <g
         id="patch_99" />
      <g
         id="patch_100" />
      <g
         id="patch_101" />
      <g
         id="patch_102" />
      <g
         id="patch_103" />
      <g
         id="patch_104" />
      <g
         id="patch_105" />
      <g
         id="patch_106" />
      <g
         id="patch_107" />
      <g
         id="patch_108" />
      <g
         id="patch_109" />
      <g
         id="patch_110" />
      <g
         id="patch_111" />
      <g
         id="patch_112" />
      <g
         id="patch_113" />
      <g
         id="patch_114" />
      <g
         id="patch_115" />
      <g
         id="patch_116" />
      <g
         id="patch_117" />
      <g
         id="patch_118" />
      <g
         id="patch_119" />
      <g
         id="patch_120" />
      <g
         id="patch_121" />
      <g
         id="patch_122" />
      <g
         id="patch_123" />
      <g
         id="patch_124" />
      <g
         id="patch_125" />
      <g
         id="patch_126" />
      <g
         id="patch_127" />
      <g
         id="patch_128" />
      <g
         id="patch_129" />
      <g
         id="patch_130" />
      <g
         id="patch_131" />
      <g
         id="patch_132" />
      <g
         id="patch_133" />
      <g
         id="patch_134" />
      <g
         id="patch_135" />
      <g
         id="patch_136" />
      <g
         id="patch_137" />
      <g
         id="patch_138" />
      <g
         id="patch_139" />
      <g
         id="patch_140" />
      <g
         id="patch_141" />
      <g
         id="patch_142" />
      <g
         id="patch_143" />
      <g
         id="patch_144" />
      <g
         id="patch_145" />
      <g
         id="patch_146" />
      <g
         id="patch_147" />
      <g
         id="patch_148" />
      <g
         id="patch_149" />
      <g
         id="patch_150" />
      <g
         id="patch_151" />
      <g
         id="patch_152" />
      <g
         id="patch_153" />
      <g
         id="patch_154" />
      <g
         id="patch_155" />
      <g
         id="patch_156" />
      <g
         id="patch_157" />
      <g
         id="patch_158" />
      <g
         id="patch_159" />
      <g
         id="patch_160" />
      <g
         id="patch_161" />
      <g
         id="patch_162" />
      <g
         id="patch_163" />
      <g
         id="patch_164" />
      <g
         id="patch_165" />
      <g
         id="patch_166" />
      <g
         id="patch_167" />
      <g
         id="patch_168" />
      <g
         id="patch_169" />
      <g
         id="patch_170" />
      <g
         id="patch_171" />
      <g
         id="patch_172" />
      <g
         id="patch_173" />
      <g
         id="patch_174" />
      <g
         id="patch_175" />
      <g
         id="patch_176" />
      <g
         id="patch_177" />
      <g
         id="patch_178" />
      <g
         id="patch_179" />
      <g
         id="patch_180" />
      <g
         id="patch_181" />
      <g
         id="patch_182" />
      <g
         id="patch_183" />
      <g
         id="patch_184" />
      <g
         id="patch_185" />
      <g
         id="patch_186" />
      <g
         id="patch_187" />
      <g
         id="patch_188" />
      <g
         id="patch_189" />
      <g
         id="patch_190" />
      <g
         id="patch_191" />
      <g
         id="patch_192" />
      <g
         id="patch_193" />
      <g
         id="patch_194" />
      <g
         id="patch_195" />
      <g
         id="patch_196" />
      <g
         id="patch_197" />
      <g
         id="patch_198" />
      <g
         id="patch_199" />
      <g
         id="patch_200" />
      <g
         id="patch_201" />
      <g
         id="patch_202" />
      <g
         id="patch_203" />
      <g
         id="patch_204" />
      <g
         id="patch_205" />
      <g
         id="patch_206" />
      <g
         id="patch_207" />
      <g
         id="patch_208" />
      <g
         id="patch_209" />
      <g
         id="patch_210" />
      <g
         id="patch_211" />
      <g
         id="patch_212" />
      <g
         id="patch_213" />
      <g
         id="patch_214" />
      <g
         id="patch_215" />
      <g
         id="patch_216" />
      <g
         id="patch_217" />
      <g
         id="patch_218" />
      <g
         id="patch_219" />
      <g
         id="patch_220" />
      <g
         id="patch_221" />
      <g
         id="patch_222" />
      <g
         id="patch_223" />
      <g
         id="patch_224" />
      <g
         id="patch_225" />
      <g
         id="patch_226" />
      <g
         id="patch_227" />
      <g
         id="patch_228" />
      <g
         id="patch_229" />
      <g
         id="patch_230" />
      <g
         id="patch_231" />
      <g
         id="patch_232" />
      <g
         id="patch_233" />
      <g
         id="patch_234" />
      <g
         id="patch_235" />
      <g
         id="patch_236" />
      <g
         id="patch_237" />
      <g
         id="patch_238" />
      <g
         id="patch_239" />
      <g
         id="patch_240" />
      <g
         id="patch_241" />
      <g
         id="patch_242" />
      <g
         id="patch_243" />
      <g
         id="patch_244" />
      <g
         id="patch_245" />
      <g
         id="patch_246" />
      <g
         id="patch_247" />
      <g
         id="patch_248" />
      <g
         id="patch_249" />
      <g
         id="patch_250" />
      <g
         id="patch_251" />
      <g
         id="patch_252" />
      <g
         id="patch_253" />
      <g
         id="patch_254" />
      <g
         id="patch_255" />
      <g
         id="patch_256" />
      <g
         id="patch_257" />
      <g
         id="patch_258" />
      <g
         id="patch_259" />
      <g
         id="patch_260" />
      <g
         id="patch_261" />
      <g
         id="patch_262" />
      <g
         id="patch_263" />
      <g
         id="patch_264" />
      <g
         id="patch_265" />
      <g
         id="patch_266" />
      <g
         id="patch_267" />
      <g
         id="patch_268" />
      <g
         id="patch_269" />
      <g
         id="patch_270" />
      <g
         id="patch_271" />
      <g
         id="patch_272" />
      <g
         id="patch_273" />
      <g
         id="patch_274" />
      <g
         id="patch_275" />
      <g
         id="patch_276" />
      <g
         id="patch_277" />
      <g
         id="patch_278" />
      <g
         id="patch_279" />
      <g
         id="patch_280" />
      <g
         id="patch_281" />
      <g
         id="patch_282" />
      <g
         id="patch_283" />
      <g
         id="patch_284" />
      <g
         id="patch_285" />
      <g
         id="patch_286" />
      <g
         id="patch_287" />
      <g
         id="patch_288" />
      <g
         id="patch_289" />
      <g
         id="patch_290" />
      <g
         id="patch_291" />
      <g
         id="patch_292" />
      <g
         id="patch_293" />
      <g
         id="patch_294" />
      <g
         id="patch_295" />
      <g
         id="patch_296" />
      <g
         id="patch_297" />
      <g
         id="patch_298" />
      <g
         id="patch_299" />
      <g
         id="patch_300" />
      <g
         id="patch_301" />
      <g
         id="patch_302" />
      <g
         id="patch_303" />
      <g
         id="patch_304" />
      <g
         id="patch_305" />
      <g
         id="patch_306" />
      <g
         id="patch_307" />
      <g
         id="patch_308" />
    </g>
  </g>
  <defs
     id="defs935">
    <clipPath
       id="pdb28e1635c">
      <rect
         height="657.5434"
         width="764.07446"
         x="20.5625"
         y="7.1999998"
         id="rect932"
         style="stroke-linecap:butt;stroke-linejoin:round" />
    </clipPath>
  </defs>
</svg>
