<?xml version="1.0" encoding="UTF-8" standalone="no"?>
<!-- Created with matplotlib (https://matplotlib.org/) -->

<svg
   xmlns:dc="http://purl.org/dc/elements/1.1/"
   xmlns:cc="http://creativecommons.org/ns#"
   xmlns:rdf="http://www.w3.org/1999/02/22-rdf-syntax-ns#"
   xmlns:svg="http://www.w3.org/2000/svg"
   xmlns="http://www.w3.org/2000/svg"
   xmlns:sodipodi="http://sodipodi.sourceforge.net/DTD/sodipodi-0.dtd"
   xmlns:inkscape="http://www.inkscape.org/namespaces/inkscape"
   height="501.259204pt"
   version="1.1"
   viewBox="0 0 568.7725 501.259204"
   width="568.7725pt"
   id="svg937"
   sodipodi:docname="weak_rods.svg"
   inkscape:version="0.92.3 (2405546, 2018-03-11)">
  <metadata
     id="metadata941">
    <rdf:RDF>
      <cc:Work
         rdf:about="">
        <dc:format>image/svg+xml</dc:format>
        <dc:type
           rdf:resource="http://purl.org/dc/dcmitype/StillImage" />
      </cc:Work>
    </rdf:RDF>
  </metadata>
  <sodipodi:namedview
     pagecolor="#ffffff"
     bordercolor="#666666"
     borderopacity="1"
     objecttolerance="10"
     gridtolerance="10"
     guidetolerance="10"
     inkscape:pageopacity="0"
     inkscape:pageshadow="2"
     inkscape:window-width="2880"
     inkscape:window-height="1491"
     id="namedview939"
     showgrid="false"
     inkscape:zoom="0.99874792"
     inkscape:cx="236.77572"
     inkscape:cy="89.946097"
     inkscape:window-x="0"
     inkscape:window-y="55"
     inkscape:window-maximized="1"
     inkscape:current-layer="axes_1" />
  <defs
     id="defs4">
    <style
       type="text/css"
       id="style2">
*{stroke-linecap:butt;stroke-linejoin:round;}
  </style>
  </defs>
  <g
     id="figure_1">
    <g
       id="axes_1">
      <g
         id="patch_2"
         transform="rotate(5.5768509,291.06737,242.29027)"
         style="stroke-linecap:butt;stroke-linejoin:round">
        <path
           style="stroke:#000000;stroke-width:1.33333337;stroke-linecap:butt;stroke-linejoin:miter"
           clip-path="url(#p939130ee9e)"
           d="m 227.88477,38.095703 c -1.98272,0 -3.88317,0.787464 -5.28516,2.189453 -1.40199,1.40199 -2.18945,3.304398 -2.18945,5.28711 0,1.653795 0.55534,3.246813 1.55078,4.544922 l -6.78516,5.207031 -38.59961,66.859371 -1.11719,8.47852 c -0.32211,-0.0425 -0.64614,-0.0723 -0.9746,-0.0723 -1.98272,0 -3.88512,0.78747 -5.28711,2.18946 -1.40199,1.40198 -2.18946,3.3044 -2.18946,5.28711 0,1.65449 0.55454,3.24847 1.55078,4.54687 l -6.78515,5.20508 -38.59961,66.85742 -1.11719,8.48047 c -0.32149,-0.0423 -0.6468,-0.0723 -0.97461,-0.0723 -1.98271,0 -3.88317,0.78747 -5.28515,2.18946 -1.40199,1.40199 -2.18946,3.30439 -2.18946,5.28711 0,1.65476 0.55424,3.24836 1.55078,4.54687 l -6.78515,5.20508 -38.601566,66.85742 -1.115234,8.48047 c -0.322117,-0.0425 -0.646145,-0.0723 -0.974609,-0.0723 -1.982712,0 -3.88512,0.78747 -5.28711,2.18946 -1.401989,1.40199 -2.189453,3.3044 -2.189453,5.28711 0,1.98271 0.787464,3.88316 2.189453,5.28515 1.40199,1.40199 3.304398,2.18946 5.28711,2.18946 0.328432,0 0.652522,-0.0279 0.974609,-0.0703 l 1.115234,8.47852 38.601566,66.85742 6.78515,5.20703 c -0.99634,1.29845 -1.55078,2.89229 -1.55078,4.54688 0,1.98271 0.78747,3.88316 2.18946,5.28515 1.40198,1.40199 3.30244,2.18946 5.28515,2.18946 0.32778,0 0.65315,-0.028 0.97461,-0.0703 l 1.11719,8.47852 38.59961,66.85742 6.78515,5.20703 c -0.99604,1.29834 -1.55078,2.89255 -1.55078,4.54688 0,1.98271 0.78747,3.88317 2.18946,5.28515 1.40199,1.40199 3.30439,2.18946 5.28711,2.18946 0.32843,0 0.65252,-0.0279 0.9746,-0.0703 l 1.11719,8.47851 38.59961,66.85742 6.78516,5.20703 c -0.99605,1.29834 -1.55078,2.8906 -1.55078,4.54493 0,1.98271 0.78746,3.88512 2.18945,5.28711 1.40199,1.40198 3.30244,2.18945 5.28516,2.18945 1.98271,0 3.88512,-0.78747 5.28711,-2.18945 0.70099,-0.701 1.24891,-1.52725 1.62109,-2.42579 l 7.89453,3.26954 h 77.19922 l 7.89453,-3.26954 c 0.37218,0.89854 0.9201,1.72479 1.62109,2.42579 1.40199,1.40198 3.3044,2.18945 5.28711,2.18945 1.98272,0 3.88317,-0.78747 5.28516,-2.18945 0.70099,-0.701 1.24891,-1.52725 1.62109,-2.42579 l 7.89453,3.26954 h 77.20118 l 7.89257,-3.26954 c 0.37219,0.89854 0.9201,1.72479 1.6211,2.42579 1.40199,1.40198 3.3044,2.18945 5.28711,2.18945 1.98271,0 3.88316,-0.78747 5.28515,-2.18945 0.701,-0.701 1.24891,-1.52725 1.6211,-2.42579 l 7.89453,3.26954 h 77.20117 l 7.89258,-3.26954 c 0.37218,0.89854 0.9201,1.72479 1.62109,2.42579 1.40199,1.40198 3.3044,2.18945 5.28711,2.18945 1.98271,0 3.88317,-0.78747 5.28516,-2.18945 1.40199,-1.40199 2.1914,-3.3044 2.1914,-5.28711 0,-1.6546 -0.55638,-3.24648 -1.55273,-4.54493 l 6.78516,-5.20703 38.60156,-66.85742 1.11523,-8.47851 c 0.32209,0.0424 0.64618,0.0703 0.97461,0.0703 1.98271,0 3.88512,-0.78747 5.28711,-2.18946 1.40199,-1.40198 2.18945,-3.30244 2.18946,-5.28515 0,-1.65433 -0.55474,-3.24854 -1.55079,-4.54688 l 6.78516,-5.20703 38.59961,-66.85742 1.11719,-8.47852 c 0.32166,0.0423 0.64661,0.0703 0.97461,0.0703 1.98271,0 3.88316,-0.78747 5.28515,-2.18946 1.40199,-1.40199 2.19141,-3.30244 2.19141,-5.28515 0,-1.65459 -0.55639,-3.24843 -1.55274,-4.54688 l 6.78516,-5.20703 38.60156,-66.85742 1.11524,-8.47852 c 0.32208,0.0425 0.64617,0.0703 0.97461,0.0703 1.98271,0 3.88512,-0.78747 5.28711,-2.18946 1.40199,-1.40199 2.18945,-3.30244 2.18945,-5.28515 0,-1.98271 -0.78746,-3.88512 -2.18945,-5.28711 -1.40199,-1.40199 -3.3044,-2.18945 -5.28711,-2.18946 -0.32847,0 -0.6525,0.0298 -0.97461,0.0723 l -1.11524,-8.48047 -38.60156,-66.85742 -6.78516,-5.20508 c 0.99655,-1.29851 1.55274,-2.89211 1.55274,-4.54687 0,-1.98272 -0.78942,-3.88512 -2.19141,-5.28711 -1.40199,-1.40199 -3.30244,-2.18946 -5.28515,-2.18946 -0.32803,0 -0.65292,0.0299 -0.97461,0.0723 l -1.11719,-8.48047 -38.59961,-66.85742 -6.78516,-5.20508 c 0.99625,-1.2984 1.55078,-2.89238 1.55079,-4.54687 0,-1.98271 -0.78747,-3.88513 -2.18946,-5.28711 -1.40199,-1.40199 -3.3044,-2.18946 -5.28711,-2.18946 -0.32846,0 -0.65249,0.0298 -0.97461,0.0723 l -1.11523,-8.47852 -38.60156,-66.859371 -6.78321,-5.205078 c 0.9959,-1.298279 1.55078,-2.892677 1.55078,-4.546875 0,-1.982712 -0.78941,-3.88512 -2.1914,-5.28711 -1.40199,-1.401989 -3.30245,-2.189453 -5.28516,-2.189453 -1.98271,0 -3.88512,0.787464 -5.28711,2.189453 -0.70099,0.700995 -1.24891,1.527251 -1.62109,2.425782 l -7.89258,-3.269532 h -77.20117 l -7.89453,3.269532 c -0.37219,-0.898531 -0.9201,-1.724787 -1.6211,-2.425782 -1.40199,-1.401989 -3.30244,-2.189453 -5.28515,-2.189453 -1.98271,0 -3.88512,0.787464 -5.28711,2.189453 -0.701,0.700995 -1.24891,1.527251 -1.6211,2.425782 l -7.89257,-3.269532 h -77.20118 l -7.89453,3.269532 c -0.37218,-0.898531 -0.9201,-1.724787 -1.62109,-2.425782 -1.40199,-1.401989 -3.30244,-2.189453 -5.28516,-2.189453 -1.98271,0 -3.88512,0.787464 -5.28711,2.189453 -0.70099,0.700995 -1.24891,1.527251 -1.62109,2.425782 l -7.89453,-3.269532 H 242.6875 l -7.89453,3.269532 c -0.37218,-0.898531 -0.9201,-1.724787 -1.62109,-2.425782 -1.40199,-1.401989 -3.3044,-2.189453 -5.28711,-2.189453 z m 6.9082,10.337891 7.89453,3.269531 h 77.19922 l 7.89453,-3.269531 c 0.2489,0.600893 0.58326,1.165241 0.98242,1.685547 l -6.78515,5.205078 -38.59961,66.859371 -1.11719,8.47852 c -0.32212,-0.0425 -0.64615,-0.0723 -0.97461,-0.0723 -0.32846,0 -0.65249,0.0298 -0.97461,0.0723 l -1.11719,-8.47852 -38.59961,-66.859371 -6.78515,-5.205078 c 0.39916,-0.520306 0.73352,-1.084654 0.98242,-1.685547 z m 106.80273,0 7.89453,3.269531 h 77.20118 l 7.89257,-3.269531 c 0.2489,0.600893 0.58326,1.165241 0.98243,1.685547 l -6.78516,5.205078 -38.59961,66.859371 -1.11719,8.47852 c -0.32211,-0.0425 -0.64614,-0.0723 -0.97461,-0.0723 -0.32846,0 -0.65249,0.0298 -0.97461,0.0723 l -1.11718,-8.47852 -38.59961,-66.859371 -6.78516,-5.207031 c 0.39873,-0.519968 0.73372,-1.083181 0.98242,-1.683594 z m 106.80274,0 7.89453,3.269531 h 77.20117 l 7.89258,-3.269531 c 0.2489,0.600893 0.58326,1.165241 0.98242,1.685547 l -6.78516,5.205078 -38.5996,66.859371 -1.11719,8.47852 c -0.32212,-0.0425 -0.64615,-0.0723 -0.97461,-0.0723 -0.32847,0 -0.65249,0.0298 -0.97461,0.0723 l -1.11524,-8.47852 -38.60156,-66.859371 -6.7832,-5.205078 c 0.39906,-0.520225 0.73162,-1.084769 0.98047,-1.685547 z m -221.48828,4.542968 c 0.32208,0.04244 0.64617,0.07227 0.97461,0.07227 0.32778,0 0.65314,-0.02999 0.97461,-0.07227 l 1.11718,8.478516 38.60156,66.857422 6.78321,5.20703 c -0.39917,0.52031 -0.73157,1.08465 -0.98047,1.68555 l -7.89453,-3.26953 h -77.20117 l -7.89454,3.26953 c -0.24889,-0.6009 -0.5813,-1.16524 -0.98046,-1.68555 l 6.7832,-5.20703 38.60156,-66.857422 z m 106.80468,0 c 0.32147,0.04227 0.64683,0.07227 0.97461,0.07227 0.32844,0 0.65253,-0.02982 0.97461,-0.07227 l 1.11524,8.478516 38.60156,66.857422 6.7832,5.20703 c -0.39916,0.52031 -0.73157,1.08465 -0.98047,1.68555 l -7.89453,-3.26953 h -77.20117 l -7.89453,3.26953 c -0.2489,-0.6009 -0.58131,-1.16524 -0.98047,-1.68555 l 6.7832,-5.20703 38.60157,-66.857422 z m 106.80274,0 c 0.32146,0.04227 0.64683,0.07227 0.97461,0.07227 0.32843,0 0.65252,-0.02982 0.97461,-0.07227 l 1.11523,8.478516 38.60156,66.857422 6.78321,5.20703 c -0.39917,0.52031 -0.73157,1.08465 -0.98047,1.68555 l -7.89453,-3.26953 h -77.20118 l -7.89257,3.26953 c -0.2489,-0.6009 -0.58326,-1.16524 -0.98243,-1.68555 l 6.78516,-5.20703 38.59961,-66.857422 z m 106.80273,0 c 0.32147,0.04227 0.64683,0.07227 0.97461,0.07227 0.32843,0 0.65252,-0.02982 0.97461,-0.07227 l 1.11524,8.478516 38.60156,66.857422 6.78515,5.20703 c -0.39938,0.52048 -0.73342,1.08441 -0.98242,1.68555 l -7.89453,-3.26953 h -77.20117 l -7.89258,3.26953 c -0.2489,-0.6009 -0.58326,-1.16524 -0.98242,-1.68555 l 6.78516,-5.20703 38.5996,-66.857422 z m -365.92969,87.951168 7.89454,3.26954 h 77.20117 l 7.89453,-3.26954 c 0.24896,0.60105 0.58116,1.16514 0.98047,1.68555 l -6.78321,5.20508 -38.60156,66.85742 -1.11718,8.48047 c -0.3215,-0.0423 -0.6468,-0.0723 -0.97461,-0.0723 -0.32847,0 -0.6525,0.0298 -0.97461,0.0723 l -1.11524,-8.48047 -38.60156,-66.85742 -6.7832,-5.20508 c 0.3993,-0.52041 0.7315,-1.0845 0.98046,-1.68555 z m 106.80274,0 7.89453,3.26954 h 77.20117 l 7.89453,-3.26954 c 0.24897,0.60105 0.58117,1.16514 0.98047,1.68555 l -6.7832,5.20508 -38.60156,66.85742 -1.11524,8.48047 c -0.32211,-0.0425 -0.64614,-0.0723 -0.97461,-0.0723 -0.32781,0 -0.65311,0.03 -0.97461,0.0723 l -1.11718,-8.48047 -38.60157,-66.85742 -6.7832,-5.20508 c 0.39931,-0.52041 0.73151,-1.0845 0.98047,-1.68555 z m 106.80469,0 7.89257,3.26954 h 77.20118 l 7.89453,-3.26954 c 0.24896,0.60105 0.58116,1.16514 0.98047,1.68555 l -6.78321,5.20508 -38.60156,66.85742 -1.11523,8.48047 c -0.32212,-0.0425 -0.64615,-0.0723 -0.97461,-0.0723 -0.32781,0 -0.65312,0.03 -0.97461,0.0723 l -1.11719,-8.48047 -38.59961,-66.85742 -6.78516,-5.20508 c 0.39931,-0.52041 0.73346,-1.0845 0.98243,-1.68555 z m 106.80273,0 7.89258,3.26954 h 77.20117 l 7.89453,-3.26954 c 0.24906,0.60129 0.5829,1.16497 0.98242,1.68555 l -6.78515,5.20508 -38.60156,66.85742 -1.11524,8.48047 c -0.32212,-0.0425 -0.64614,-0.0723 -0.97461,-0.0723 -0.32781,0 -0.65311,0.03 -0.97461,0.0723 l -1.11719,-8.48047 -38.5996,-66.85742 -6.78516,-5.20508 c 0.3993,-0.52041 0.73346,-1.0845 0.98242,-1.68555 z m -328.29101,4.54297 c 0.32208,0.0424 0.64617,0.0723 0.97461,0.0723 0.32843,0 0.65252,-0.0298 0.9746,-0.0723 l 1.11719,8.47852 38.59961,66.85742 6.78516,5.20703 c -0.39917,0.52031 -0.73353,1.08466 -0.98242,1.68555 l -7.89454,-3.26953 h -77.20117 l -7.89258,3.26953 c -0.24889,-0.60089 -0.58325,-1.16524 -0.98242,-1.68555 l 6.78516,-5.20703 38.59961,-66.85742 z m 106.80273,0 c 0.32209,0.0424 0.64618,0.0723 0.97461,0.0723 0.32843,0 0.65252,-0.0298 0.97461,-0.0723 l 1.11719,8.47852 38.59961,66.85742 6.78515,5.20703 c -0.39916,0.52031 -0.73352,1.08466 -0.98242,1.68555 l -7.89453,-3.26953 H 242.6875 l -7.89453,3.26953 c -0.2489,-0.60089 -0.58326,-1.16524 -0.98242,-1.68555 l 6.78515,-5.20703 38.59961,-66.85742 z m 106.80273,0 c 0.32209,0.0424 0.64618,0.0723 0.97461,0.0723 0.32844,0 0.65253,-0.0298 0.97461,-0.0723 l 1.11719,8.47852 38.59961,66.85742 6.78516,5.20703 c -0.39917,0.52031 -0.73353,1.08466 -0.98243,1.68555 l -7.89257,-3.26953 h -77.20118 l -7.89453,3.26953 c -0.24889,-0.60089 -0.58325,-1.16524 -0.98242,-1.68555 l 6.78516,-5.20703 38.59961,-66.85742 z m 106.80274,0 c 0.32209,0.0424 0.64618,0.0723 0.97461,0.0723 0.32843,0 0.65252,-0.0298 0.97461,-0.0723 l 1.11719,8.47852 38.5996,66.85742 6.78516,5.20703 c -0.39916,0.52031 -0.73352,1.08466 -0.98242,1.68555 l -7.89258,-3.26953 h -77.20117 l -7.89453,3.26953 c -0.249,-0.60113 -0.58304,-1.16507 -0.98242,-1.68555 l 6.78515,-5.20703 38.60156,-66.85742 z m 106.80273,0 c 0.32209,0.0424 0.64618,0.0723 0.97461,0.0723 0.32799,0 0.65295,-0.0299 0.97461,-0.0723 l 1.11719,8.47852 38.59961,66.85742 6.78516,5.20703 c -0.39917,0.52031 -0.73353,1.08466 -0.98243,1.68555 l -7.89257,-3.26953 H 563.0957 l -7.89453,3.26953 c -0.249,-0.60113 -0.58304,-1.16507 -0.98242,-1.68555 l 6.78516,-5.20703 38.60156,-66.85742 z m -472.73047,87.95118 7.89258,3.26953 h 77.20117 l 7.89454,-3.26953 c 0.24876,0.60056 0.58355,1.16351 0.98242,1.68359 l -6.78516,5.20703 -38.59961,66.85742 -1.11719,8.48047 c -0.32211,-0.0425 -0.64614,-0.0723 -0.9746,-0.0723 -0.32847,0 -0.6525,0.0298 -0.97461,0.0723 l -1.11719,-8.48047 -38.59961,-66.85742 -6.78516,-5.20508 c 0.39931,-0.52041 0.73346,-1.0845 0.98242,-1.68554 z m 106.80274,0 7.89453,3.26953 h 77.19922 l 7.89453,-3.26953 c 0.24896,0.60104 0.58312,1.16513 0.98242,1.68554 l -6.78515,5.20508 -38.59961,66.85742 -1.11719,8.48047 c -0.32212,-0.0425 -0.64615,-0.0723 -0.97461,-0.0723 -0.32846,0 -0.65249,0.0298 -0.97461,0.0723 l -1.11719,-8.48047 -38.59961,-66.85742 -6.78515,-5.20508 c 0.3993,-0.52041 0.73346,-1.0845 0.98242,-1.68554 z m 106.80273,0 7.89453,3.26953 h 77.20118 l 7.89257,-3.26953 c 0.24897,0.60104 0.58312,1.16513 0.98243,1.68554 l -6.78516,5.20508 -38.59961,66.85742 -1.11719,8.48047 c -0.32211,-0.0425 -0.64614,-0.0723 -0.97461,-0.0723 -0.32846,0 -0.65249,0.0298 -0.97461,0.0723 l -1.11718,-8.48047 -38.59961,-66.85742 -6.78516,-5.20703 c 0.39887,-0.52008 0.73366,-1.08303 0.98242,-1.68359 z m 106.80274,0 7.89453,3.26953 h 77.20117 l 7.89258,-3.26953 c 0.24896,0.60104 0.58312,1.16513 0.98242,1.68554 l -6.78516,5.20508 -38.5996,66.85742 -1.11719,8.48047 c -0.32212,-0.0425 -0.64615,-0.0723 -0.97461,-0.0723 -0.32847,0 -0.65249,0.0298 -0.97461,0.0723 l -1.11524,-8.48047 -38.60156,-66.85742 -6.78515,-5.20508 c 0.39952,-0.52058 0.73336,-1.08426 0.98242,-1.68554 z m 106.80273,0 7.89453,3.26953 h 77.20118 l 7.89257,-3.26953 c 0.24897,0.60104 0.58312,1.16513 0.98243,1.68554 l -6.78516,5.20508 -38.59961,66.85742 -1.11719,8.48047 c -0.32169,-0.0423 -0.64658,-0.0723 -0.97461,-0.0723 -0.32846,0 -0.65249,0.0298 -0.97461,0.0723 l -1.11523,-8.48047 -38.60156,-66.85742 -6.78516,-5.20508 c 0.39952,-0.52058 0.73336,-1.08426 0.98242,-1.68554 z m -435.09375,4.54296 c 0.32209,0.0425 0.64618,0.0723 0.97461,0.0723 0.32778,0 0.65315,-0.03 0.97461,-0.0723 l 1.11719,8.47852 38.59961,66.85742 6.78515,5.20703 c -0.39916,0.52031 -0.73157,1.08466 -0.98047,1.68555 l -7.89453,-3.26953 H 82.482422 l -7.894531,3.26953 c -0.248898,-0.60089 -0.581305,-1.16524 -0.980469,-1.68555 l 6.783203,-5.20703 38.601565,-66.85742 z m 106.80274,0 c 0.32208,0.0425 0.64617,0.0723 0.97461,0.0723 0.32778,0 0.65314,-0.03 0.97461,-0.0723 l 1.11718,8.47852 38.60156,66.85742 6.78321,5.20703 c -0.39917,0.52031 -0.73157,1.08466 -0.98047,1.68555 l -7.89453,-3.26953 h -77.20117 l -7.89454,3.26953 c -0.24889,-0.60089 -0.5813,-1.16524 -0.98046,-1.68555 l 6.7832,-5.20703 38.60156,-66.85742 z m 106.80468,0 c 0.32147,0.0423 0.64683,0.0723 0.97461,0.0723 0.32844,0 0.65253,-0.0298 0.97461,-0.0723 l 1.11524,8.47852 38.60156,66.85742 6.7832,5.20703 c -0.39916,0.52031 -0.73157,1.08466 -0.98047,1.68555 l -7.89453,-3.26953 h -77.20117 l -7.89453,3.26953 c -0.2489,-0.60089 -0.58131,-1.16524 -0.98047,-1.68555 l 6.7832,-5.20703 38.60157,-66.85742 z m 106.80274,0 c 0.32146,0.0423 0.64683,0.0723 0.97461,0.0723 0.32843,0 0.65252,-0.0298 0.97461,-0.0723 l 1.11523,8.47852 38.60156,66.85742 6.78321,5.20703 c -0.39917,0.52031 -0.73157,1.08466 -0.98047,1.68555 l -7.89453,-3.26953 h -77.20118 l -7.89257,3.26953 c -0.2489,-0.60089 -0.58326,-1.16524 -0.98243,-1.68555 l 6.78516,-5.20703 38.59961,-66.85742 z m 106.80273,0 c 0.32147,0.0423 0.64683,0.0723 0.97461,0.0723 0.32843,0 0.65252,-0.0298 0.97461,-0.0723 l 1.11524,8.47852 38.60156,66.85742 6.78515,5.20703 c -0.39938,0.52048 -0.73342,1.08442 -0.98242,1.68555 l -7.89453,-3.26953 h -77.20117 l -7.89258,3.26953 c -0.2489,-0.60089 -0.58326,-1.16524 -0.98242,-1.68555 l 6.78516,-5.20703 38.5996,-66.85742 z m 106.80274,0 c 0.32166,0.0423 0.64661,0.0723 0.97461,0.0723 0.32843,0 0.65252,-0.0298 0.97461,-0.0723 l 1.11523,8.47852 38.60156,66.85742 6.78516,5.20703 c -0.39938,0.52048 -0.73343,1.08442 -0.98242,1.68555 l -7.89453,-3.26953 h -77.20118 l -7.89257,3.26953 c -0.2489,-0.60089 -0.58326,-1.16524 -0.98243,-1.68555 l 6.78516,-5.20703 38.59961,-66.85742 z m -579.535159,87.95118 7.894531,3.26953 h 77.201168 l 7.89453,-3.26953 c 0.24897,0.60104 0.58117,1.16513 0.98047,1.68554 l -6.78515,5.20508 -38.59961,66.85742 -1.11719,8.48047 c -0.32149,-0.0423 -0.6468,-0.0723 -0.97461,-0.0723 -0.32846,0 -0.65249,0.0298 -0.97461,0.0723 l -1.11523,-8.48047 -38.601565,-66.85742 -6.783203,-5.20508 c 0.399305,-0.52041 0.731506,-1.0845 0.980469,-1.68554 z m 106.802729,0 7.89454,3.26953 h 77.20117 l 7.89453,-3.26953 c 0.24896,0.60104 0.58116,1.16513 0.98047,1.68554 l -6.78321,5.20508 -38.60156,66.85742 -1.11718,8.48047 c -0.3215,-0.0423 -0.6468,-0.0723 -0.97461,-0.0723 -0.32847,0 -0.6525,0.0298 -0.97461,0.0723 l -1.11524,-8.48047 -38.60156,-66.85742 -6.7832,-5.20508 c 0.3993,-0.52041 0.7315,-1.0845 0.98046,-1.68554 z m 106.80274,0 7.89453,3.26953 h 77.20117 l 7.89453,-3.26953 c 0.24897,0.60104 0.58117,1.16513 0.98047,1.68554 l -6.7832,5.20508 -38.60156,66.85742 -1.11524,8.48047 c -0.32211,-0.0424 -0.64614,-0.0723 -0.97461,-0.0723 -0.32781,0 -0.65311,0.03 -0.97461,0.0723 l -1.11718,-8.48047 -38.60157,-66.85742 -6.7832,-5.20508 c 0.39931,-0.52041 0.73151,-1.0845 0.98047,-1.68554 z m 106.80469,0 7.89257,3.26953 h 77.20118 l 7.89453,-3.26953 c 0.24896,0.60104 0.58116,1.16513 0.98047,1.68554 l -6.78321,5.20508 -38.60156,66.85742 -1.11523,8.48047 c -0.32212,-0.0424 -0.64615,-0.0723 -0.97461,-0.0723 -0.32781,0 -0.65312,0.03 -0.97461,0.0723 l -1.11719,-8.48047 -38.59961,-66.85742 -6.78516,-5.20508 c 0.39931,-0.52041 0.73346,-1.0845 0.98243,-1.68554 z m 106.80273,0 7.89258,3.26953 h 77.20117 l 7.89453,-3.26953 c 0.24906,0.60128 0.5829,1.16496 0.98242,1.68554 l -6.78515,5.20508 -38.60156,66.85742 -1.11524,8.48047 c -0.32212,-0.0424 -0.64614,-0.0723 -0.97461,-0.0723 -0.32781,0 -0.65311,0.03 -0.97461,0.0723 l -1.11719,-8.48047 -38.5996,-66.85742 -6.78516,-5.20508 c 0.3993,-0.52041 0.73346,-1.0845 0.98242,-1.68554 z m 106.80274,0 7.89257,3.26953 h 77.20118 l 7.89453,-3.26953 c 0.24906,0.60128 0.5829,1.16496 0.98242,1.68554 l -6.78516,5.20508 -38.60156,66.85742 -1.11523,8.48047 c -0.32212,-0.0424 -0.64615,-0.0723 -0.97461,-0.0723 -0.32803,0 -0.65292,0.0299 -0.97461,0.0723 l -1.11719,-8.48047 -38.59961,-66.85742 -6.78516,-5.20508 c 0.39931,-0.52041 0.73346,-1.0845 0.98243,-1.68554 z m -435.09375,4.54296 c 0.32208,0.0425 0.64617,0.0703 0.97461,0.0703 0.32843,0 0.65252,-0.0279 0.9746,-0.0703 l 1.11719,8.47852 38.59961,66.85742 6.78516,5.20703 c -0.39917,0.52031 -0.73353,1.08466 -0.98242,1.68555 l -7.89454,-3.26953 h -77.20117 l -7.89258,3.26953 c -0.24889,-0.60089 -0.58325,-1.16524 -0.98242,-1.68555 l 6.78516,-5.20703 38.59961,-66.85742 z m 106.80273,0 c 0.32209,0.0425 0.64618,0.0703 0.97461,0.0703 0.32843,0 0.65252,-0.0279 0.97461,-0.0703 l 1.11719,8.47852 38.59961,66.85742 6.78515,5.20703 c -0.39916,0.52031 -0.73352,1.08466 -0.98242,1.68555 l -7.89453,-3.26953 H 242.6875 l -7.89453,3.26953 c -0.2489,-0.60089 -0.58326,-1.16524 -0.98242,-1.68555 l 6.78515,-5.20703 38.59961,-66.85742 z m 106.80273,0 c 0.32209,0.0425 0.64618,0.0703 0.97461,0.0703 0.32844,0 0.65253,-0.0279 0.97461,-0.0703 l 1.11719,8.47852 38.59961,66.85742 6.78516,5.20703 c -0.39917,0.52031 -0.73353,1.08466 -0.98243,1.68555 l -7.89257,-3.26953 h -77.20118 l -7.89453,3.26953 c -0.24889,-0.60089 -0.58325,-1.16524 -0.98242,-1.68555 l 6.78516,-5.20703 38.59961,-66.85742 z m 106.80274,0 c 0.32209,0.0425 0.64618,0.0703 0.97461,0.0703 0.32843,0 0.65252,-0.0279 0.97461,-0.0703 l 1.11719,8.47852 38.5996,66.85742 6.78516,5.20703 c -0.39916,0.52031 -0.73352,1.08466 -0.98242,1.68555 l -7.89258,-3.26953 h -77.20117 l -7.89453,3.26953 c -0.249,-0.60113 -0.58304,-1.16507 -0.98242,-1.68555 l 6.78515,-5.20703 38.60156,-66.85742 z m 106.80273,0 c 0.32209,0.0425 0.64618,0.0703 0.97461,0.0703 0.32799,0 0.65295,-0.028 0.97461,-0.0703 l 1.11719,8.47852 38.59961,66.85742 6.78516,5.20703 c -0.39917,0.52031 -0.73353,1.08466 -0.98243,1.68555 l -7.89257,-3.26953 H 563.0957 l -7.89453,3.26953 c -0.249,-0.60113 -0.58304,-1.16507 -0.98242,-1.68555 l 6.78516,-5.20703 38.60156,-66.85742 z m -472.73047,87.95118 7.89258,3.26953 h 77.20117 l 7.89454,-3.26953 c 0.24868,0.59996 0.58391,1.16398 0.98242,1.68359 l -6.78516,5.20703 -38.59961,66.85742 -1.11719,8.47852 c -0.32208,-0.0424 -0.64617,-0.0703 -0.9746,-0.0703 -0.32844,0 -0.65253,0.0279 -0.97461,0.0703 l -1.11719,-8.47852 -38.59961,-66.85742 -6.78516,-5.20508 c 0.39895,-0.51994 0.73355,-1.0851 0.98242,-1.68554 z m 106.80274,0 7.89453,3.26953 h 77.19922 l 7.89453,-3.26953 c 0.24888,0.60044 0.58348,1.1656 0.98242,1.68554 l -6.78515,5.20508 -38.59961,66.85742 -1.11719,8.47852 c -0.32209,-0.0424 -0.64618,-0.0703 -0.97461,-0.0703 -0.32843,0 -0.65252,0.0279 -0.97461,0.0703 l -1.11719,-8.47852 -38.59961,-66.85742 -6.78515,-5.20508 c 0.39894,-0.51994 0.73354,-1.0851 0.98242,-1.68554 z m 106.80273,0 7.89453,3.26953 h 77.20118 l 7.89257,-3.26953 c 0.24888,0.60044 0.58348,1.1656 0.98243,1.68554 l -6.78516,5.20508 -38.59961,66.85742 -1.11719,8.47852 c -0.32208,-0.0424 -0.64617,-0.0703 -0.97461,-0.0703 -0.32843,0 -0.65252,0.0279 -0.97461,0.0703 l -1.11718,-8.47852 -38.59961,-66.85742 -6.78516,-5.20703 c 0.39851,-0.51961 0.73374,-1.08363 0.98242,-1.68359 z m 106.80274,0 7.89453,3.26953 h 77.20117 l 7.89258,-3.26953 c 0.24888,0.60044 0.58348,1.1656 0.98242,1.68554 l -6.78516,5.20508 -38.5996,66.85742 -1.11719,8.47852 c -0.32209,-0.0424 -0.64618,-0.0703 -0.97461,-0.0703 -0.32843,0 -0.65252,0.0279 -0.97461,0.0703 l -1.11524,-8.47852 -38.60156,-66.85742 -6.78515,-5.20508 c 0.39916,-0.52011 0.73344,-1.08486 0.98242,-1.68554 z m 106.80273,0 7.89453,3.26953 h 77.20118 l 7.89257,-3.26953 c 0.24888,0.60044 0.58348,1.1656 0.98243,1.68554 l -6.78516,5.20508 -38.59961,66.85742 -1.11719,8.47852 c -0.32166,-0.0423 -0.64662,-0.0703 -0.97461,-0.0703 -0.32843,0 -0.65252,0.0279 -0.97461,0.0703 l -1.11523,-8.47852 -38.60156,-66.85742 -6.78516,-5.20508 c 0.39916,-0.52011 0.73344,-1.08486 0.98242,-1.68554 z m -328.29101,4.54296 c 0.32208,0.0424 0.64617,0.0703 0.97461,0.0703 0.32778,0 0.65314,-0.028 0.97461,-0.0703 l 1.11718,8.47852 38.60156,66.85742 6.78321,5.20703 c -0.39917,0.52031 -0.73157,1.08466 -0.98047,1.68555 l -7.89453,-3.26953 h -77.20117 l -7.89454,3.26953 c -0.24889,-0.60089 -0.5813,-1.16524 -0.98046,-1.68555 l 6.7832,-5.20703 38.60156,-66.85742 z m 106.80468,0 c 0.32147,0.0423 0.64683,0.0703 0.97461,0.0703 0.32844,0 0.65253,-0.0279 0.97461,-0.0703 l 1.11524,8.47852 38.60156,66.85742 6.7832,5.20703 c -0.39916,0.52031 -0.73157,1.08466 -0.98047,1.68555 l -7.89453,-3.26953 h -77.20117 l -7.89453,3.26953 c -0.2489,-0.60089 -0.58131,-1.16524 -0.98047,-1.68555 l 6.7832,-5.20703 38.60157,-66.85742 z m 106.80274,0 c 0.32146,0.0423 0.64683,0.0703 0.97461,0.0703 0.32843,0 0.65252,-0.0279 0.97461,-0.0703 l 1.11523,8.47852 38.60156,66.85742 6.78321,5.20703 c -0.39917,0.52031 -0.73157,1.08466 -0.98047,1.68555 l -7.89453,-3.26953 h -77.20118 l -7.89257,3.26953 c -0.2489,-0.60089 -0.58326,-1.16524 -0.98243,-1.68555 l 6.78516,-5.20703 38.59961,-66.85742 z m 106.80273,0 c 0.32147,0.0423 0.64683,0.0703 0.97461,0.0703 0.32843,0 0.65252,-0.0279 0.97461,-0.0703 l 1.11524,8.47852 38.60156,66.85742 6.78515,5.20703 c -0.39938,0.52048 -0.73342,1.08442 -0.98242,1.68555 l -7.89453,-3.26953 h -77.20117 l -7.89258,3.26953 c -0.2489,-0.60089 -0.58326,-1.16524 -0.98242,-1.68555 l 6.78516,-5.20703 38.5996,-66.85742 z m -365.92969,87.94922 7.89454,3.26954 h 77.20117 l 7.89453,-3.26954 c 0.24924,0.60173 0.5825,1.16661 0.98242,1.6875 l -6.78516,5.20508 -38.60156,66.85742 -1.11718,8.47852 c -0.32147,-0.0423 -0.64683,-0.0703 -0.97461,-0.0703 -0.32844,0 -0.65253,0.0279 -0.97461,0.0703 l -1.11524,-8.47852 -38.60156,-66.85742 -6.78516,-5.20508 c 0.39992,-0.52089 0.73318,-1.08577 0.98242,-1.6875 z m 106.80274,0 7.89453,3.26954 h 77.20117 l 7.89453,-3.26954 c 0.24925,0.60173 0.58251,1.16661 0.98243,1.6875 l -6.78516,5.20508 -38.60156,66.85742 -1.11524,8.47852 c -0.32208,-0.0424 -0.64617,-0.0703 -0.97461,-0.0703 -0.32778,0 -0.65314,0.028 -0.97461,0.0703 l -1.11718,-8.47852 -38.60157,-66.85742 -6.78515,-5.20508 c 0.39992,-0.52089 0.73318,-1.08577 0.98242,-1.6875 z m 199.79297,0 c 0.24924,0.60173 0.5825,1.16661 0.98242,1.6875 l -6.78516,5.20508 -38.60156,66.85742 -1.11523,8.47852 c -0.32209,-0.0424 -0.64618,-0.0703 -0.97461,-0.0703 -0.32778,0 -0.65315,0.028 -0.97461,0.0703 l -1.11719,-8.47852 -38.59961,-66.85742 -6.78711,-5.20703 c 0.39913,-0.52009 0.73541,-1.08295 0.98438,-1.68359 l 7.89257,3.26758 h 77.20118 z m 106.80273,0 c 0.249,0.60114 0.58304,1.16508 0.98242,1.68555 l -6.78515,5.20703 -38.60156,66.85742 -1.11524,8.47852 c -0.32209,-0.0424 -0.64618,-0.0703 -0.97461,-0.0703 -0.32778,0 -0.65314,0.028 -0.97461,0.0703 l -1.11719,-8.47852 -38.5996,-66.85742 -6.78711,-5.20703 c 0.39912,-0.52009 0.73541,-1.08295 0.98437,-1.68359 l 7.89258,3.26758 h 77.20117 z m -314.47656,4.54493 c 0.32209,0.0424 0.64618,0.0703 0.97461,0.0703 0.32843,0 0.65252,-0.0279 0.97461,-0.0703 l 1.11719,8.47851 38.59961,66.85742 6.7871,5.20703 c -0.39948,0.52056 -0.73532,1.0843 -0.98437,1.68555 l -7.89453,-3.26953 H 242.6875 l -7.89453,3.26953 c -0.24905,-0.60125 -0.58489,-1.16499 -0.98438,-1.68555 l 6.78711,-5.20703 38.59961,-66.85742 z m 106.80273,0 c 0.32209,0.0424 0.64618,0.0703 0.97461,0.0703 0.32844,0 0.65253,-0.0279 0.97461,-0.0703 l 1.11719,8.47851 38.59961,66.85742 6.78711,5.20703 c -0.39913,0.52009 -0.73541,1.08295 -0.98438,1.6836 l -7.89257,-3.26758 h -77.20118 l -7.89453,3.26953 c -0.24889,-0.60089 -0.58325,-1.16524 -0.98242,-1.68555 l 6.78516,-5.20703 38.59961,-66.85742 z m 106.80274,0 c 0.32209,0.0424 0.64618,0.0703 0.97461,0.0703 0.32843,0 0.65252,-0.0279 0.97461,-0.0703 l 1.11719,8.47851 38.5996,66.85742 6.78711,5.20703 c -0.39912,0.52009 -0.73541,1.08295 -0.98437,1.6836 l -7.89258,-3.26758 h -77.20117 l -7.89453,3.26953 c -0.249,-0.60113 -0.58304,-1.16507 -0.98242,-1.68555 l 6.78515,-5.20703 38.60156,-66.85742 z"
           transform="scale(0.74999997)"
           id="path9"
           inkscape:connector-curvature="0" />
      </g>
      <g
         id="patch_3" />
      <g
         id="patch_4" />
      <g
         id="patch_5" />
      <g
         id="patch_6" />
      <g
         id="patch_7" />
      <g
         id="patch_8" />
      <g
         id="patch_9" />
      <g
         id="patch_10" />
      <g
         id="patch_11" />
      <g
         id="patch_12" />
      <g
         id="patch_13" />
      <g
         id="patch_14" />
      <g
         id="patch_15" />
      <g
         id="patch_16" />
      <g
         id="patch_17" />
      <g
         id="patch_18" />
      <g
         id="patch_19" />
      <g
         id="patch_20" />
      <g
         id="patch_21" />
      <g
         id="patch_22" />
      <g
         id="patch_23" />
      <g
         id="patch_24" />
      <g
         id="patch_25" />
      <g
         id="patch_26" />
      <g
         id="patch_27" />
      <g
         id="patch_28" />
      <g
         id="patch_29" />
      <g
         id="patch_30" />
      <g
         id="patch_31" />
      <g
         id="patch_32" />
      <g
         id="patch_33" />
      <g
         id="patch_34" />
      <g
         id="patch_35" />
      <g
         id="patch_36" />
      <g
         id="patch_37" />
      <g
         id="patch_38" />
      <g
         id="patch_39" />
      <g
         id="patch_40" />
      <g
         id="patch_41" />
      <g
         id="patch_42" />
      <g
         id="patch_43" />
      <g
         id="patch_44" />
      <g
         id="patch_45" />
      <g
         id="patch_46" />
      <g
         id="patch_47" />
      <g
         id="patch_48" />
      <g
         id="patch_49" />
      <g
         id="patch_50" />
      <g
         id="patch_51" />
      <g
         id="patch_52" />
      <g
         id="patch_53" />
      <g
         id="patch_54" />
      <g
         id="patch_55" />
      <g
         id="patch_56" />
      <g
         id="patch_57" />
      <g
         id="patch_58" />
      <g
         id="patch_59" />
      <g
         id="patch_60" />
      <g
         id="patch_61" />
      <g
         id="patch_62" />
      <g
         id="patch_63" />
      <g
         id="patch_64" />
      <g
         id="patch_65" />
      <g
         id="patch_66" />
      <g
         id="patch_67" />
      <g
         id="patch_68" />
      <g
         id="patch_69" />
      <g
         id="patch_70" />
      <g
         id="patch_71" />
      <g
         id="patch_72" />
      <g
         id="patch_73" />
      <g
         id="patch_74" />
      <g
         id="patch_75" />
      <g
         id="patch_76" />
      <g
         id="patch_77" />
      <g
         id="patch_78" />
      <g
         id="patch_79" />
      <g
         id="patch_80" />
      <g
         id="patch_81" />
      <g
         id="patch_82" />
      <g
         id="patch_83" />
      <g
         id="patch_84" />
      <g
         id="patch_85" />
      <g
         id="patch_86" />
      <g
         id="patch_87" />
      <g
         id="patch_88" />
      <g
         id="patch_89" />
      <g
         id="patch_90" />
      <g
         id="patch_91" />
      <g
         id="patch_92" />
      <g
         id="patch_93" />
      <g
         id="patch_94" />
      <g
         id="patch_95" />
      <g
         id="patch_96" />
      <g
         id="patch_97" />
      <g
         id="patch_98" />
      <g
         id="patch_99" />
      <g
         id="patch_100" />
      <g
         id="patch_101" />
      <g
         id="patch_102" />
      <g
         id="patch_103" />
      <g
         id="patch_104" />
      <g
         id="patch_105" />
      <g
         id="patch_106" />
      <g
         id="patch_107" />
      <g
         id="patch_108" />
      <g
         id="patch_109" />
      <g
         id="patch_110" />
      <g
         id="patch_111" />
      <g
         id="patch_112" />
      <g
         id="patch_113" />
      <g
         id="patch_114" />
      <g
         id="patch_115" />
      <g
         id="patch_116" />
      <g
         id="patch_117" />
      <g
         id="patch_118" />
      <g
         id="patch_119" />
      <g
         id="patch_120" />
      <g
         id="patch_121" />
      <g
         id="patch_122" />
      <g
         id="patch_123" />
      <g
         id="patch_124" />
      <g
         id="patch_125" />
      <g
         id="patch_126" />
      <g
         id="patch_127" />
      <g
         id="patch_128" />
      <g
         id="patch_129" />
      <g
         id="patch_130" />
      <g
         id="patch_131" />
      <g
         id="patch_132" />
      <g
         id="patch_133" />
      <g
         id="patch_134" />
      <g
         id="patch_135" />
      <g
         id="patch_136" />
      <g
         id="patch_137" />
      <g
         id="patch_138" />
      <g
         id="patch_139" />
      <g
         id="patch_140" />
      <g
         id="patch_141" />
      <g
         id="patch_142" />
      <g
         id="patch_143" />
      <g
         id="patch_144" />
      <g
         id="patch_145" />
      <g
         id="patch_146" />
      <g
         id="patch_147" />
      <g
         id="patch_148" />
      <g
         id="patch_149" />
      <g
         id="patch_150" />
      <g
         id="patch_151" />
      <g
         id="patch_152" />
      <g
         id="patch_153" />
      <g
         id="patch_154" />
      <g
         id="patch_155" />
      <g
         id="patch_156" />
      <g
         id="patch_157" />
      <g
         id="patch_158" />
      <g
         id="patch_159" />
      <g
         id="patch_160" />
      <g
         id="patch_161" />
      <g
         id="patch_162" />
      <g
         id="patch_163" />
      <g
         id="patch_164" />
      <g
         id="patch_165" />
      <g
         id="patch_166" />
      <g
         id="patch_167" />
      <g
         id="patch_168" />
      <g
         id="patch_169" />
      <g
         id="patch_170" />
      <g
         id="patch_171" />
      <g
         id="patch_172" />
      <g
         id="patch_173" />
      <g
         id="patch_174" />
      <g
         id="patch_175" />
      <g
         id="patch_176" />
      <g
         id="patch_177" />
      <g
         id="patch_178" />
      <g
         id="patch_179" />
      <g
         id="patch_180" />
      <g
         id="patch_181" />
      <g
         id="patch_182" />
      <g
         id="patch_183" />
      <g
         id="patch_184" />
      <g
         id="patch_185" />
      <g
         id="patch_186" />
      <g
         id="patch_187" />
      <g
         id="patch_188" />
      <g
         id="patch_189" />
      <g
         id="patch_190" />
      <g
         id="patch_191" />
      <g
         id="patch_192" />
      <g
         id="patch_193" />
      <g
         id="patch_194" />
      <g
         id="patch_195" />
      <g
         id="patch_196" />
      <g
         id="patch_197" />
      <g
         id="patch_198" />
      <g
         id="patch_199" />
      <g
         id="patch_200" />
      <g
         id="patch_201" />
      <g
         id="patch_202" />
      <g
         id="patch_203" />
      <g
         id="patch_204" />
      <g
         id="patch_205" />
      <g
         id="patch_206" />
      <g
         id="patch_207" />
      <g
         id="patch_208" />
      <g
         id="patch_209" />
      <g
         id="patch_210" />
      <g
         id="patch_211" />
      <g
         id="patch_212" />
      <g
         id="patch_213" />
      <g
         id="patch_214" />
      <g
         id="patch_215" />
      <g
         id="patch_216" />
      <g
         id="patch_217" />
      <g
         id="patch_218" />
      <g
         id="patch_219" />
      <g
         id="patch_220" />
      <g
         id="patch_221" />
      <g
         id="patch_222" />
      <g
         id="patch_223" />
      <g
         id="patch_224" />
      <g
         id="patch_225" />
      <g
         id="patch_226" />
      <g
         id="patch_227" />
      <g
         id="patch_228" />
      <g
         id="patch_229" />
      <g
         id="patch_230" />
      <g
         id="patch_231" />
      <g
         id="patch_232" />
      <g
         id="patch_233" />
      <g
         id="patch_234" />
      <g
         id="patch_235" />
      <g
         id="patch_236" />
      <g
         id="patch_237" />
      <g
         id="patch_238" />
      <g
         id="patch_239" />
      <g
         id="patch_240" />
      <g
         id="patch_241" />
      <g
         id="patch_242" />
      <g
         id="patch_243" />
      <g
         id="patch_244" />
      <g
         id="patch_245" />
      <g
         id="patch_246" />
      <g
         id="patch_247" />
      <g
         id="patch_248" />
      <g
         id="patch_249" />
      <g
         id="patch_250" />
      <g
         id="patch_251" />
      <g
         id="patch_252" />
      <g
         id="patch_253" />
      <g
         id="patch_254" />
      <g
         id="patch_255" />
      <g
         id="patch_256" />
      <g
         id="patch_257" />
      <g
         id="patch_258" />
      <g
         id="patch_259" />
      <g
         id="patch_260" />
      <g
         id="patch_261" />
      <g
         id="patch_262" />
      <g
         id="patch_263" />
      <g
         id="patch_264" />
      <g
         id="patch_265" />
      <g
         id="patch_266" />
      <g
         id="patch_267" />
      <g
         id="patch_268" />
      <g
         id="patch_269" />
      <g
         id="patch_270" />
      <g
         id="patch_271" />
      <g
         id="patch_272" />
      <g
         id="patch_273" />
      <g
         id="patch_274" />
      <g
         id="patch_275" />
      <g
         id="patch_276" />
      <g
         id="patch_277" />
      <g
         id="patch_278" />
      <g
         id="patch_279" />
      <g
         id="patch_280" />
      <g
         id="patch_281" />
      <g
         id="patch_282" />
      <g
         id="patch_283" />
      <g
         id="patch_284" />
      <g
         id="patch_285" />
      <g
         id="patch_286" />
      <g
         id="patch_287" />
      <g
         id="patch_288" />
      <g
         id="patch_289" />
      <g
         id="patch_290" />
      <g
         id="patch_291" />
      <g
         id="patch_292" />
      <g
         id="patch_293" />
      <g
         id="patch_294" />
      <g
         id="patch_295" />
      <g
         id="patch_296" />
      <g
         id="patch_297" />
      <g
         id="patch_298" />
      <g
         id="patch_299" />
      <g
         id="patch_300" />
      <g
         id="patch_301" />
      <g
         id="patch_302" />
      <g
         id="patch_303" />
      <g
         id="patch_304" />
      <g
         id="patch_305" />
      <g
         id="patch_306" />
      <g
         id="patch_307" />
      <g
         id="patch_308" />
    </g>
  </g>
  <defs
     id="defs935">
    <clipPath
       id="p939130ee9e">
      <rect
         height="625.37543"
         width="719.23315"
         x="20.5625"
         y="7.1999998"
         id="rect932"
         style="stroke-linecap:butt;stroke-linejoin:round" />
    </clipPath>
  </defs>
</svg>
